<?xml version="1.0" standalone="no"?>
<!DOCTYPE svg PUBLIC "-//W3C//DTD SVG 1.1//EN" "http://www.w3.org/Graphics/SVG/1.1/DTD/svg11.dtd" >
<svg>
<metadata>
Created by FontForge 20090622 at Mon Feb  3 10:21:33 2020
 By deploy user
Copyright (c) 2013 Wizards of the Coast, a Hasbro Subsidiary. All rights reserved.
</metadata>
<defs>
<font id="Beleren-Bold" horiz-adv-x="1269" >
  <font-face 
    font-family="Beleren"
    font-weight="700"
    font-stretch="normal"
    units-per-em="2048"
    panose-1="2 0 8 3 0 0 0 2 0 4"
    ascent="1638"
    descent="-410"
    x-height="1024"
    cap-height="1434"
    bbox="-125 -512 2005 1917"
    underline-thickness="102"
    underline-position="-102"
    unicode-range="U+000D-U+FB04"
  />
<missing-glyph horiz-adv-x="748" 
d="M68 0v1365h544v-1365h-544zM136 68h408v1229h-408v-1229z" />
    <glyph glyph-name="uniFB03" unicode="ffi" horiz-adv-x="2035" 
d="M31 901v8q53 31 76.5 46t51.5 40.5t42 54.5t24 72q11 46 31 85.5t43.5 69t57.5 54t65 41t74.5 30.5t76.5 21.5t81.5 14t79 9.5t77.5 7l-23 -319h-8q-35 77 -82.5 116t-95.5 39q-51 0 -75.5 -40.5t-24.5 -137.5v-88h270q41 0 69.5 8.5t43 26t20 30t10.5 33.5
q13 56 34.5 104t45.5 83.5t58 64.5t64.5 48.5t73.5 35.5t75.5 25t79.5 16t77.5 10t77.5 7l-22 -320h-9q-35 77 -82.5 116.5t-95.5 39.5q-51 0 -75.5 -40.5t-24.5 -137.5v-150h690v-768q0 -129 19.5 -176t93.5 -72v-8h-410v901h-393v-625q0 -59 8.5 -102t21.5 -69.5t37.5 -46
t47 -29t59.5 -21.5v-8h-471v901h-393v-625q0 -59 8.5 -102t21.5 -69.5t37.5 -46t47 -29t59.5 -21.5v-8h-584v8l113 70v823h-174zM1534 1315v8l197 193h8l196 -193v-8q-42 -15 -108.5 -81.5t-87.5 -111.5h-8q-21 45 -88 111.5t-109 81.5z" />
    <glyph glyph-name="uniFB04" unicode="ffl" horiz-adv-x="2035" 
d="M31 901v8q53 31 76.5 46t51.5 40.5t42 54.5t24 72q11 46 31 85.5t43.5 69t57.5 54t65 41t74.5 30.5t76.5 21.5t81.5 14t79 9.5t77.5 7l-23 -319h-8q-35 77 -82.5 116t-95.5 39q-51 0 -75.5 -40.5t-24.5 -137.5v-88h270q41 0 69.5 8.5t43 26t20 30t10.5 33.5
q20 85 57 149.5t91.5 107t116 70.5t143 42t158.5 19.5t176 5.5h235v-1260q0 -131 21.5 -178t91.5 -70v-8h-410v1167q0 111 -44.5 148t-133.5 37q-55 0 -93 -9t-69.5 -33t-47 -69t-15.5 -113v-104h299v-8l-162 -115h-137v-645q0 -83 20.5 -133t55 -73.5t98.5 -41.5v-8h-471
v901h-393v-625q0 -59 8.5 -102t21.5 -69.5t37.5 -46t47 -29t59.5 -21.5v-8h-584v8l113 70v823h-174z" />
    <glyph glyph-name=".notdef" horiz-adv-x="748" 
d="M68 0v1365h544v-1365h-544zM136 68h408v1229h-408v-1229z" />
    <glyph glyph-name="glyph1" horiz-adv-x="2048" 
 />
    <glyph glyph-name="glyph1" horiz-adv-x="2048" 
 />
    <glyph glyph-name="uni000D" unicode="&#xd;" horiz-adv-x="2048" 
 />
    <glyph glyph-name="space" unicode=" " horiz-adv-x="491" 
 />
    <glyph glyph-name="exclam" unicode="!" horiz-adv-x="606" 
d="M102 172v8q42 15 109 81.5t88 111.5h8q21 -45 88 -111.5t109 -81.5v-8l-197 -192h-8zM145 1434h318l-62 -775l-94 -237h-8l-94 237z" />
    <glyph glyph-name="quotedbl" unicode="&#x22;" horiz-adv-x="829" 
d="M102 1516h236l-41 -406l-72 -168h-8l-74 168zM492 1516h235l-41 -406l-72 -168h-8l-74 168z" />
    <glyph glyph-name="numbersign" unicode="#" 
d="M123 395v205h219l57 205h-276v205h332l123 444h157l-123 -444h205l123 444h158l-123 -444h172v-205h-227l-58 -205h285v-205h-340l-115 -415h-157l114 415h-205l-114 -415h-158l115 415h-164zM500 600h205l57 205h-205z" />
    <glyph glyph-name="dollar" unicode="$" horiz-adv-x="927" 
d="M82 981q0 130 84.5 210t224.5 95l74 320h10l76 -324q126 -18 219 -70l-27 -297h-8q-36 135 -100.5 214t-159.5 79q-64 0 -100.5 -36t-36.5 -95q0 -45 28.5 -84.5t74.5 -71t101 -64t110 -70.5t101 -82.5t74.5 -108t28.5 -139.5q0 -121 -84 -200t-221 -103l-76 -324h-10
l-74 313q-158 9 -295 84l25 301h8q19 -60 44 -110t60 -95.5t83.5 -71.5t105.5 -26q70 0 114 40t44 112q0 49 -27.5 91.5t-71.5 75t-97 65t-106 68.5t-97 77t-71.5 99.5t-27.5 127.5z" />
    <glyph glyph-name="percent" unicode="%" horiz-adv-x="1761" 
d="M72 1032q0 197 98.5 309.5t247.5 112.5t247.5 -112.5t98.5 -309.5t-98.5 -309.5t-247.5 -112.5t-247.5 112.5t-98.5 309.5zM283 1032q0 -86 5 -143t19 -104.5t41.5 -70t69.5 -22.5t69.5 22.5t41.5 70t19 104.5t5 143t-5 143t-19 104.5t-41.5 70t-69.5 22.5t-69.5 -22.5
t-41.5 -70t-19 -104.5t-5 -143zM328 6l942 1428h166l2 -7l-942 -1427h-166zM997 401q0 197 98.5 309.5t247.5 112.5t248 -112.5t99 -309.5t-99 -309t-248 -112t-247.5 112t-98.5 309zM1208 401q0 -86 5 -143t19 -104.5t41.5 -70t69.5 -22.5t69.5 22.5t42 69.5t19.5 104.5
t5 143.5t-5 143.5t-19.5 104.5t-42 69.5t-69.5 22.5t-69.5 -22.5t-41.5 -70t-19 -104.5t-5 -143z" />
    <glyph glyph-name="ampersand" unicode="&#x26;" horiz-adv-x="1290" 
d="M72 389q0 147 75.5 249.5t194.5 154.5l-8 12q-119 160 -119 289q0 117 94.5 199.5t259.5 82.5q99 0 192.5 -34.5t164.5 -86.5l-138 -241l-6 2q0 116 -52 182t-144 66q-60 0 -98.5 -36.5t-38.5 -88.5q0 -22 4 -40t20 -44.5t24.5 -39t40 -53.5l44.5 -59l415 -549
q25 36 25 107q0 90 -43 154.5t-127 93.5v8h346q-4 -273 -137 -449l199 -262l-5 -6h-321l-60 80q-78 -50 -160.5 -75t-191.5 -25q-201 0 -325.5 108t-124.5 301zM328 451q0 -150 86.5 -244t230.5 -94q97 0 174 41l-407 546q-39 -37 -61.5 -106t-22.5 -143z" />
    <glyph glyph-name="quotesingle" unicode="'" horiz-adv-x="440" 
d="M102 1516h236l-41 -406l-72 -168h-8l-74 168z" />
    <glyph glyph-name="parenleft" unicode="(" horiz-adv-x="710" 
d="M113 561q0 162 38 310.5t96.5 256t132.5 194.5t142.5 138.5t130.5 75.5l6 -2l-30.5 -38.5t-41.5 -63.5t-52 -97t-48.5 -129.5t-45.5 -171t-29.5 -212t-12.5 -261.5q0 -136 12.5 -260t29.5 -211t46 -170.5t48.5 -129t51.5 -96.5t41.5 -63.5l30.5 -38.5l-6 -2
q-51 20 -107.5 59.5t-118 99.5t-117 143.5t-100 181.5t-71 224.5t-26.5 262.5z" />
    <glyph glyph-name="parenright" unicode=")" horiz-adv-x="710" 
d="M51 -408l30.5 38.5t41.5 63.5t52 97t48.5 129.5t45.5 171t29.5 212t12.5 261.5q0 136 -12.5 260t-29.5 211t-46 170.5t-48.5 129t-51.5 96.5t-41.5 63.5l-30.5 38.5l6 2q62 -24 130.5 -75t143 -138t133 -193.5t96.5 -254.5t38 -310t-38 -310.5t-96.5 -256t-133 -194.5
t-143 -138.5t-130.5 -75.5z" />
    <glyph glyph-name="asterisk" unicode="*" horiz-adv-x="1113" 
d="M551 668l-385 -267l148 432l-384 269l475 -2l146 438l148 -438l479 2l-389 -269l150 -432z" />
    <glyph glyph-name="plus" unicode="+" 
d="M154 600v205h374v379h213v-379h375v-205h-375v-379h-213v379h-374z" />
    <glyph glyph-name="comma" unicode="," horiz-adv-x="565" 
d="M82 172v8l197 193h8l196 -193v-8l-278 -510l-8 4q20 73 20 168q0 97 -34 185.5t-101 152.5z" />
    <glyph glyph-name="hyphen" unicode="-" horiz-adv-x="1071" 
d="M72 512v8l135 217h792v-8l-135 -217h-792z" />
    <glyph glyph-name="period" unicode="." horiz-adv-x="565" 
d="M82 172v8q42 15 109 81.5t88 111.5h8q21 -45 87.5 -111.5t108.5 -81.5v-8l-196 -192h-8z" />
    <glyph glyph-name="slash" unicode="/" horiz-adv-x="847" 
d="M51 -94l559 1622h187l-559 -1622h-187z" />
    <glyph glyph-name="zero" unicode="0" 
d="M92 717q0 345 150 541t393 196t393 -196t150 -541t-150 -541t-393 -196t-393 196t-150 541zM410 717q0 -138 5 -233t19.5 -176t39.5 -128t64.5 -72.5t96.5 -25.5t96.5 25.5t64.5 72.5t39.5 128t19.5 176t5 233t-5 233t-19.5 176t-39.5 128t-64.5 72.5t-96.5 25.5
t-96.5 -25.5t-64.5 -72.5t-39.5 -128t-19.5 -176t-5 -233z" />
    <glyph glyph-name="one" unicode="1" horiz-adv-x="921" 
d="M102 0v20l215 78v1063l-4 6h-211v21q103 26 245.5 103.5t236.5 162.5h20v-1130q0 -136 53 -208t162 -96v-20h-717z" />
    <glyph glyph-name="two" unicode="2" horiz-adv-x="1073" 
d="M20 8q315 374 479.5 644.5t164.5 463.5q0 111 -53 168t-134 57q-94 0 -142 -67t-48 -164q0 -61 16 -104l-6 -7l-227 287q79 76 187 122t232 46q74 0 143 -14.5t129 -45t104.5 -74t70 -104t25.5 -131.5t-23 -138t-59 -123t-98.5 -128t-123 -134l-151 -159.5t-166.5 -187.5
h504l6 2l102 223h9v-440h-936z" />
    <glyph glyph-name="three" unicode="3" horiz-adv-x="1013" 
d="M41 131l176 217l6 -2q0 -107 50.5 -180.5t148.5 -73.5q93 0 142.5 68t49.5 194q0 67 -12 122.5t-39 101.5t-76 72t-116 26l-111 104v8h51q86 0 147.5 50t89 122.5t27.5 155.5q0 113 -44 169t-119 56q-88 0 -133.5 -69t-45.5 -166l-6 -2l-164 178q145 172 383 172
q185 0 305.5 -88.5t120.5 -249.5q0 -129 -78 -220t-184 -124v-8q142 -35 227 -122.5t85 -231.5q0 -200 -129 -315t-359 -115q-242 0 -393 151z" />
    <glyph glyph-name="four" unicode="4" horiz-adv-x="1165" 
d="M20 451l869 1085h8v-1073h186v-8l-159 -140h-27v-315q-65 -2 -144.5 -15t-134.5 -36h-8v366h-440l-147 129zM197 469l2 -6h411v526h-8z" />
    <glyph glyph-name="five" unicode="5" horiz-adv-x="1073" 
d="M102 131l154 229l6 -2q0 -114 70.5 -185t183.5 -71q118 0 184 65.5t66 178.5q0 50 -19.5 99t-66 97.5t-115 85.5t-177 60t-241.5 23l80 723h598l70 102h8v-317h-569l-27 -263q138 -2 251.5 -32t190.5 -79.5t130.5 -116.5t77.5 -140.5t24 -153.5q0 -94 -31.5 -175
t-92 -144t-157.5 -99t-219 -36q-113 0 -211 40t-168 111z" />
    <glyph glyph-name="six" unicode="6" horiz-adv-x="1204" 
d="M92 584q0 179 70.5 340.5t190 277.5t285 184t347.5 68v-82q-157 -1 -276 -72t-188.5 -192t-96.5 -285l182 72h72q185 0 299.5 -124.5t114.5 -317.5q0 -200 -136 -336.5t-335 -136.5q-85 0 -161 20t-144 66t-117.5 114.5t-78 171.5t-28.5 232zM410 625q0 -286 54 -414.5
t161 -128.5q54 0 93.5 44.5t58 110.5t18.5 140q0 217 -62.5 316.5t-200.5 99.5h-112q-10 -88 -10 -168z" />
    <glyph glyph-name="seven" unicode="7" horiz-adv-x="1011" 
d="M51 952v482h938l2 -7l-469 -1427q-200 0 -332 -51l-4 6l588 1264h-418q-220 0 -297 -267h-8z" />
    <glyph glyph-name="eight" unicode="8" horiz-adv-x="1220" 
d="M92 385q0 296 297 369v8q-109 34 -180.5 113.5t-71.5 214.5q0 163 136.5 263.5t336.5 100.5t336.5 -100.5t136.5 -263.5q0 -135 -71.5 -214.5t-180.5 -113.5v-8q297 -73 297 -369q0 -183 -144 -294t-374 -111t-374 111t-144 294zM399 369q0 -129 53 -208t158 -79t158 79
t53 208q0 284 -211 362q-211 -79 -211 -362zM434 1104q0 -132 47.5 -222t128.5 -120q81 30 128.5 120t47.5 222q0 120 -47.5 184t-128.5 64t-128.5 -64t-47.5 -184z" />
    <glyph glyph-name="nine" unicode="9" horiz-adv-x="1204" 
d="M113 981q0 130 66.5 239.5t174.5 171.5t230 62q80 0 153.5 -20t142.5 -66t120 -114t81.5 -172t30.5 -232q0 -173 -45.5 -316.5t-126.5 -245t-193.5 -171.5t-245 -103.5t-282.5 -33.5v81q249 2 389 137.5t174 413.5l-184 -73h-72q-185 0 -299 124.5t-114 317.5zM410 1057
q0 -217 62 -316.5t200 -99.5h114q9 115 9 168q0 286 -54 414.5t-161 128.5q-54 0 -93.5 -44.5t-58 -110.5t-18.5 -140z" />
    <glyph glyph-name="colon" unicode=":" horiz-adv-x="565" 
d="M82 172v8q42 15 109 81.5t88 111.5h8q21 -45 87.5 -111.5t108.5 -81.5v-8l-196 -192h-8zM82 782v9l197 192h8l196 -192v-9q-42 -15 -108.5 -81t-87.5 -111h-8q-21 45 -88 111t-109 81z" />
    <glyph glyph-name="semicolon" unicode=";" horiz-adv-x="565" 
d="M82 172v8l197 193h8l196 -193v-8l-278 -510l-8 4q20 73 20 168q0 97 -34 185.5t-101 152.5zM82 782v9l197 192h8l196 -192v-9q-42 -15 -108.5 -81t-87.5 -111h-8q-21 45 -88 111t-109 81z" />
    <glyph glyph-name="less" unicode="&#x3c;" 
d="M154 612v181l886 360l76 -184l-672 -267l672 -266l-76 -184z" />
    <glyph glyph-name="equal" unicode="=" 
d="M154 395v205h962v-205h-962zM154 805v205h962v-205h-962z" />
    <glyph glyph-name="greater" unicode="&#x3e;" 
d="M154 436l671 266l-671 267l75 184l887 -360v-181l-887 -360z" />
    <glyph glyph-name="question" unicode="?" horiz-adv-x="1097" 
d="M61 1286q81 74 190 121t236 47q210 0 338.5 -101t128.5 -268q0 -163 -102.5 -286t-286.5 -201l-78 -176h-8l-112 246q70 29 120 66.5t78.5 75.5t45 87t21.5 91t5 97q0 124 -46 195.5t-134 71.5q-85 0 -131.5 -67.5t-46.5 -158.5q0 -79 16 -122l-6 -7zM283 172v8
q42 15 108.5 81.5t87.5 111.5h8q21 -45 88 -111.5t109 -81.5v-8l-197 -192h-8z" />
    <glyph glyph-name="at" unicode="@" horiz-adv-x="1597" 
d="M72 502q0 202 98 374.5t265.5 272.5t363.5 100t363.5 -100t265.5 -272.5t98 -374.5q0 -152 -58.5 -293t-160.5 -240l-453 451l68 395q-28 4 -31 4q-69 0 -123 -47.5t-83.5 -120t-44.5 -145t-15 -135.5q0 -79 30.5 -116.5t79.5 -37.5q73 0 129 41l33 -53q-33 -36 -90 -63
t-121 -27q-148 0 -231.5 79t-83.5 212q0 91 36 180.5t99.5 162t161 117.5t209.5 45q150 0 311 -59l-53 -293q-23 -141 -23 -194q0 -85 37.5 -133t99.5 -48q68 0 108 80t40 238q0 130 -47.5 248t-127.5 202.5t-190.5 134.5t-232.5 50t-232.5 -50t-190.5 -134.5t-127.5 -202.5
t-47.5 -248q0 -175 80 -321t217 -230t299 -84q57 0 85.5 26.5t28.5 73.5q0 43 -22 90l6 4l229 -227q-143 -80 -327 -80q-195 0 -362 100.5t-265 273t-98 374.5z" />
    <glyph glyph-name="A" unicode="A" horiz-adv-x="1308" 
d="M-31 0v8l103 70l587 1417h9l569 -1417l102 -70v-8h-399l-160 428l-172 -111h-260l-29 -69q-22 -58 -22 -105q0 -101 109 -135v-8h-437zM408 467h358l-166 451h-8z" />
    <glyph glyph-name="B" unicode="B" horiz-adv-x="1230" 
d="M92 0v8l113 70v1114h254v8l-367 225v9h502q246 0 378 -87t132 -266q0 -107 -64 -182.5t-180 -116.5v-8q146 -41 227.5 -139t81.5 -244q0 -198 -121.5 -294.5t-351.5 -96.5h-604zM502 133h92q76 0 128 19.5t79.5 57t39 84t11.5 109.5q0 136 -77 226t-236 155v9
q130 0 194 72.5t64 197.5q0 113 -51 175t-171 62h-73v-1167z" />
    <glyph glyph-name="C" unicode="C" horiz-adv-x="1212" 
d="M92 717q0 165 49.5 304t135 233.5t202 147t248.5 52.5q221 0 403 -108l-49 -394h-8q-18 58 -36 104t-47 98t-61 86.5t-77 57.5t-96 23q-162 0 -244 -148.5t-82 -435.5q0 -624 324 -624q65 0 117.5 29.5t91.5 85.5t66 114.5t54 138.5h9l49 -383q-185 -118 -416 -118
q-138 0 -253 47t-200 137.5t-132.5 232t-47.5 320.5z" />
    <glyph glyph-name="D" unicode="D" horiz-adv-x="1427" 
d="M92 0v8l113 70v1114h254v8l-367 225v9h563q208 0 362.5 -90t236 -252t81.5 -375q0 -342 -180.5 -529.5t-499.5 -187.5h-563zM512 133h143q174 0 258 144.5t84 439.5q0 306 -83 444.5t-259 138.5h-143v-1167z" />
    <glyph glyph-name="E" unicode="E" horiz-adv-x="1112" 
d="M92 0v8l113 70v1278l-113 69v9h897v-420h-8q-13 54 -36 100t-59.5 87t-93.5 65t-128 24h-152v-477h416v-8l-166 -146h-250v-516h193q70 0 127.5 27t94 72.5t59.5 94t36 103.5h8v-440h-938z" />
    <glyph glyph-name="F" unicode="F" horiz-adv-x="1003" 
d="M92 1425v9h901v-420h-8q-13 54 -36 100t-59.5 87t-93.5 65t-128 24h-156v-487h389v-8l-166 -146h-223v-1059h-8q-44 65 -125 126.5t-174 88.5v1551z" />
    <glyph glyph-name="G" unicode="G" horiz-adv-x="1411" 
d="M92 717q0 164 54 303.5t146.5 234t216 147t261.5 52.5q307 0 483 -176l-227 -315l-6 6q6 54 6 90q0 115 -61.5 188.5t-184.5 73.5q-160 0 -255 -152t-95 -432q0 -319 89 -471.5t280 -152.5q104 0 192 43v215q0 140 -65 218.5t-189 119.5v8h541v-1127h-8
q-113 166 -279 215v301l-170 -126h-84q-140 0 -257 47t-204 137.5t-135.5 232t-48.5 320.5z" />
    <glyph glyph-name="H" unicode="H" horiz-adv-x="1443" 
d="M92 0v8l113 70v1286l-113 61v9h549v-9l-129 -61v-530h420v346q0 68 -8.5 113.5t-28 71t-39.5 37.5t-53 23v9h549v-9l-113 -61v-1774h-8q-44 65 -125 126.5t-174 88.5v996l-156 -121h-264v-426q0 -68 8.5 -113.5t28 -71.5t39.5 -38t53 -23v-8h-549z" />
    <glyph glyph-name="I" unicode="I" horiz-adv-x="716" 
d="M92 1425v9h533v-9l-113 -69v-1571h-8q-44 65 -125 126.5t-174 88.5v1356z" />
    <glyph glyph-name="J" unicode="J" horiz-adv-x="727" 
d="M-51 1425v9h686v-9l-113 -69v-1012q0 -170 -31 -306t-85.5 -224.5t-119.5 -143t-141 -80.5l-6 2q39 53 57.5 108.5t18.5 154.5v1226q0 295 -266 344z" />
    <glyph glyph-name="K" unicode="K" horiz-adv-x="1351" 
d="M92 0v8l113 70v1278l-113 69v9h574v-9l-154 -69v-1102q0 -54 9 -95.5t22.5 -66.5t35.5 -43t41 -26t46 -15v-8h-574zM541 748l383 481q55 71 55 121q0 55 -74 75v9h441v-9l-121 -69l-406 -504l600 -1051q87 -151 203 -200l-2 -7q-16 -4 -37 -4q-157 0 -369 172t-374 457z
" />
    <glyph glyph-name="L" unicode="L" horiz-adv-x="1034" 
d="M92 0v8l113 70v1278l-113 69v9h594v-9l-174 -69v-1213h197q215 0 297 287h8v-430h-922z" />
    <glyph glyph-name="M" unicode="M" horiz-adv-x="1720" 
d="M92 0v8l113 70v1276l-113 71v9h404l374 -953h9l368 953h381v-9l-112 -69v-1278l112 -70v-8h-420v934h-8l-397 -1026h-8l-408 995h-8v-903h-287z" />
    <glyph glyph-name="N" unicode="N" horiz-adv-x="1382" 
d="M51 1425v9h395l549 -807h9v542q0 59 -7 99.5t-18.5 66.5t-36 43.5t-50.5 27t-71 19.5v9h469v-9l-112 -69v-1471h-9l-782 1127h-8v-748q0 -74 8.5 -118.5t33.5 -72t54.5 -40t85.5 -25.5v-8h-469v8l113 70v1200l-51 78z" />
    <glyph glyph-name="O" unicode="O" horiz-adv-x="1470" 
d="M92 717q0 172 50.5 312.5t138 232.5t204.5 142t252 50q58 0 105 -8l-99 -422h-10l-65 289q-238 -64 -238 -596q0 -604 305 -604t305 604q0 367 -112 512l53 178q183 -74 290 -253t107 -437q0 -172 -50 -312.5t-137.5 -232.5t-204 -142t-251.5 -50t-251.5 50t-204 142
t-137.5 232.5t-50 312.5z" />
    <glyph glyph-name="P" unicode="P" horiz-adv-x="1208" 
d="M92 1425v9h572q240 0 382 -105t142 -303q0 -102 -42.5 -186t-113.5 -136.5t-158.5 -81t-181.5 -28.5h-8l-172 111v-920h-8q-44 65 -125 126.5t-174 88.5v1192h254v8zM512 737h94q254 0 254 277q0 144 -67 210t-220 66h-61v-553z" />
    <glyph glyph-name="Q" unicode="Q" horiz-adv-x="1470" 
d="M92 717q0 172 50 312.5t137.5 232.5t204 142t251.5 50t251.5 -50t204 -142t137.5 -232.5t50 -312.5q0 -77 -11 -150.5t-35.5 -152t-70.5 -151.5t-110 -130l-250 238q139 0 139 346q0 604 -305 604t-305 -604t305 -604q43 0 66.5 26.5t23.5 108.5l361 -344
q286 -271 569 -271l-2 -6q-50 -22 -91 -29.5t-108 -7.5q-339 0 -634 279l-121 115q-40 -4 -64 -4q-135 0 -251.5 50t-204 142t-137.5 232.5t-50 312.5z" />
    <glyph glyph-name="R" unicode="R" horiz-adv-x="1300" 
d="M92 0v8l113 70v1114h254v8l-367 225v9h572q85 0 162.5 -13.5t146 -43.5t118 -73t78.5 -106.5t29 -140.5q0 -132 -77 -228t-208 -133l506 -895q87 -151 203 -200l-2 -7q-16 -4 -37 -4q-76 0 -171.5 43t-196 120.5t-201 199t-176.5 266.5l-289 551v8h59q141 0 201.5 69.5
t60.5 199.5q0 119 -69.5 181t-227.5 62h-61v-1046q0 -48 11 -87t28 -63t41.5 -42.5t46 -27.5t47.5 -16v-8h-594z" />
    <glyph glyph-name="S" unicode="S" horiz-adv-x="1042" 
d="M72 1051q0 189 127 296t323 107q98 0 196 -25.5t171 -62.5l-29 -362h-8q-24 75 -51.5 131t-66.5 102t-92.5 70t-119.5 24q-77 0 -130.5 -51t-53.5 -127q0 -62 35.5 -114t92 -90.5t125 -76.5t137.5 -81.5t125.5 -95t92 -127.5t35.5 -169q0 -99 -39.5 -179.5t-108 -132.5
t-158 -79.5t-190.5 -27.5q-217 0 -403 88l29 372h8q119 -338 366 -338q94 0 151.5 52.5t57.5 144.5q0 69 -34.5 126.5t-89 98t-121 78.5l-133 79.5t-121 90t-89 120t-34.5 159.5z" />
    <glyph glyph-name="T" unicode="T" horiz-adv-x="1126" 
d="M20 973v461h1086v-461h-8q-13 61 -35 113.5t-57.5 100.5t-89.5 75.5t-121 27.5h-78v-1046q0 -48 11 -87t28 -63t41.5 -42.5t46 -27.5t47.5 -16v-8h-655v8l174 70v1212h-64q-57 0 -105.5 -18.5t-82.5 -48.5t-60.5 -72t-42.5 -85.5t-26 -92.5h-9z" />
    <glyph glyph-name="U" unicode="U" horiz-adv-x="1320" 
d="M72 1425v9h420v-1004q0 -297 243 -297q117 0 182.5 76t65.5 252v719q0 67 -12.5 114t-37 72.5t-47.5 37.5t-57 21v9h441v-9l-113 -69v-885q0 -110 -26 -195.5t-69.5 -140.5t-106 -90.5t-131 -50t-148.5 -14.5q-72 0 -134.5 11t-130.5 44.5t-116.5 86.5t-79.5 145.5
t-31 213.5v875z" />
    <glyph glyph-name="V" unicode="V" horiz-adv-x="1228" 
d="M-20 1425v9h405l299 -881h8l213 635q21 62 21 100q0 64 -37.5 98t-95.5 39v9h456v-9l-119 -69l-505 -1510h-9l-514 1510z" />
    <glyph glyph-name="W" unicode="W" horiz-adv-x="1843" 
d="M-20 1425v9h397l295 -846h8l305 887h8l301 -887h9l208 581q19 58 19 109q0 133 -141 147v9h475v-9l-119 -69l-512 -1428h-8l-299 873h-8l-300 -873h-8l-512 1428z" />
    <glyph glyph-name="X" unicode="X" horiz-adv-x="1327" 
d="M0 0v8l113 70l409 594l-401 684l-101 69v9h410l285 -486l186 271q37 52 37 110q0 38 -23 64t-71 32v9h459v-9l-113 -69l-387 -559l543 -920l-7 -4q-75 61 -194.5 94t-226.5 33l-306 520l-211 -305q-36 -52 -36 -111q0 -83 94 -96v-8h-459z" />
    <glyph glyph-name="Y" unicode="Y" horiz-adv-x="1228" 
d="M-20 1425v9h419l287 -598h8l172 340q43 87 43 143q0 96 -116 106v9h456v-9l-125 -59l-352 -707v-415q0 -48 11 -87t28 -63t41.5 -42.5t46 -27.5t47.5 -16v-8h-655v8l174 70v553l-361 735z" />
    <glyph glyph-name="Z" unicode="Z" horiz-adv-x="1079" 
d="M45 6l602 1284h-215q-71 0 -128 -28t-94 -75t-60 -100.5t-35 -113.5h-9v461h914l4 -7l-604 -1284h242q71 0 128 28t93.5 75.5t59.5 100.5t36 114h8v-461h-940z" />
    <glyph glyph-name="bracketleft" unicode="[" horiz-adv-x="710" 
d="M113 -410v1946h546v-8l-165 -105h-115v-1720h115l165 -104v-9h-546z" />
    <glyph glyph-name="backslash" unicode="\" horiz-adv-x="727" 
d="M20 1528h187l559 -1622h-186z" />
    <glyph glyph-name="bracketright" unicode="]" horiz-adv-x="710" 
d="M51 -401l166 104h115v1720h-115l-166 105v8h547v-1946h-547v9z" />
    <glyph glyph-name="asciicircum" unicode="^" 
d="M168 731q82 89 215.5 320t181.5 383h140q49 -150 182.5 -382.5t214.5 -320.5l-4 -6l-463 373l-463 -373z" />
    <glyph glyph-name="underscore" unicode="_" horiz-adv-x="1024" 
d="M-31 -41h1086v-123h-1086v123z" />
    <glyph glyph-name="grave" unicode="`" horiz-adv-x="819" 
d="M43 1468l2 7h406q14 -71 75.5 -172.5t124.5 -153.5l-6 -6z" />
    <glyph glyph-name="a" unicode="a" horiz-adv-x="1046" 
d="M51 248q0 92 43.5 162.5t122 112.5t178.5 63t221 22v68q0 135 -32 195.5t-107 60.5q-63 0 -101 -43t-38 -115q0 -61 14 -96l-6 -6l-266 164q62 95 169 151.5t251 56.5q102 0 175.5 -18t128.5 -60t82 -115.5t27 -180.5v-592l113 -70v-8h-410v113q-115 -133 -278 -133
q-127 0 -207 68.5t-80 199.5zM338 268q0 -67 32.5 -96t75.5 -29q90 0 170 103v250q-141 -3 -209.5 -55t-68.5 -173z" />
    <glyph glyph-name="b" unicode="b" horiz-adv-x="1208" 
d="M0 1507v9h459v-533q91 61 211 61q211 0 344 -142t133 -390q0 -252 -127 -392t-350 -140q-158 0 -256 104l-244 -125h-8v1301q0 66 -9 108.5t-31 69.5t-49 41t-73 28zM459 152q72 -60 170 -60q103 0 151.5 96.5t48.5 323.5q0 225 -45.5 322.5t-165.5 97.5q-82 0 -159 -64
v-716z" />
    <glyph glyph-name="c" unicode="c" horiz-adv-x="1007" 
d="M61 492q0 127 40 232.5t109.5 174.5t162 107t198.5 38q144 0 253 -66.5t143 -172.5l-283 -174l-6 6q33 68 33 137q0 67 -33 112.5t-98 45.5q-95 0 -148 -106t-53 -304q0 -420 235 -420q152 0 267 115l63 -59q-62 -81 -157.5 -129.5t-215.5 -48.5q-232 0 -371 135
t-139 377z" />
    <glyph glyph-name="d" unicode="d" horiz-adv-x="1198" 
d="M61 492q0 250 134.5 401t343.5 151q118 0 209 -61v277q0 66 -9 108.5t-31 69.5t-49 41t-73 28v9h458v-1557h-8l-288 152q-112 -131 -267 -131q-195 0 -307.5 132t-112.5 380zM379 492q0 -151 19.5 -239t53 -119.5t87.5 -31.5q57 0 113 41.5t96 102.5v622q-77 64 -158 64
q-123 0 -167 -106t-44 -334z" />
    <glyph glyph-name="e" unicode="e" horiz-adv-x="1044" 
d="M61 492q0 127 40 232.5t109.5 174.5t162 107t198.5 38q191 0 306.5 -116.5t115.5 -306.5v-99h-487l-125 86q-2 -27 -2 -86q0 -420 235 -420q165 0 277 115l63 -59q-134 -178 -383 -178q-232 0 -371 135t-139 377zM383 635h266q53 0 76 25.5t23 76.5q0 84 -44 139.5
t-116 55.5q-178 0 -205 -297z" />
    <glyph glyph-name="f" unicode="f" horiz-adv-x="757" 
d="M31 901v8q53 31 76.5 46t51.5 40.5t42 54.5t24 72q17 72 47 130t65 97t85 68.5t95 46.5t107.5 28.5t110.5 15.5t115 8l-23 -320h-8q-35 77 -82.5 116.5t-95.5 39.5q-139 0 -139 -178v-150h299v-8l-162 -115h-137v-625q0 -59 8.5 -102t21.5 -69.5t37.5 -46t47 -29
t59.5 -21.5v-8h-584v8l113 70v823h-174z" />
    <glyph glyph-name="g" unicode="g" horiz-adv-x="1024" 
d="M51 0h361v-8q-48 -11 -79.5 -49t-31.5 -88q0 -63 53 -104.5t142 -41.5q84 0 141 48t57 124q0 35 -12.5 68t-43.5 66.5t-78.5 59t-124 42.5t-173.5 20l-4 6l133 260q-67 10 -124 31.5t-107.5 56.5t-79.5 91t-29 127q0 100 60.5 172.5t160 107.5t224.5 35h528v-8
q-44 -6 -91 -49.5t-54 -87.5q63 -78 63 -170q0 -138 -113.5 -223.5t-318.5 -88.5l-37 -71q263 -21 389.5 -122.5t126.5 -258.5q0 -72 -31 -135t-90.5 -112.5t-155 -78.5t-216.5 -29q-200 0 -322.5 104.5t-122.5 287.5v18zM352 709q0 -106 41 -155.5t103 -49.5q63 0 104 49.5
t41 155.5q0 108 -41 157t-104 49q-62 0 -103 -49.5t-41 -156.5z" />
    <glyph glyph-name="h" unicode="h" horiz-adv-x="1218" 
d="M0 1507v9h459v-639q59 76 147 121.5t189 45.5q65 0 112 -13t87 -46t60.5 -96.5t20.5 -157.5v-653l113 -70v-8h-410v686q0 93 -31.5 133.5t-97.5 40.5q-50 0 -101 -29.5t-89 -82.5v-492q0 -129 19 -176t93 -72v-8h-522v8l113 70v1182q0 66 -9 108.5t-31 69.5t-49 41
t-73 28z" />
    <glyph glyph-name="i" unicode="i" horiz-adv-x="604" 
d="M41 0v8l113 70v690q0 134 -21 178.5t-92 69.5v8h410v-782q0 -121 21.5 -166t90.5 -68v-8h-522zM102 1315v8l197 193h8l197 -193v-8q-42 -15 -109 -81.5t-88 -111.5h-8q-21 45 -88 111.5t-109 81.5z" />
    <glyph glyph-name="j" unicode="j" horiz-adv-x="604" 
d="M41 1016v8h410v-680q0 -343 -93 -523t-274 -231l-6 2q39 53 57.5 108.5t18.5 154.5v913q0 134 -21 178.5t-92 69.5zM102 1315v8l197 193h8l197 -193v-8q-42 -15 -109 -81.5t-88 -111.5h-8q-21 45 -88 111.5t-109 81.5z" />
    <glyph glyph-name="k" unicode="k" horiz-adv-x="1128" 
d="M-10 1507v9h471v-1260q0 -129 19 -176t93 -72v-8h-522v8l113 70v1182q0 124 -35.5 173t-138.5 74zM481 659l224 234q49 49 49 78q0 31 -41 45v8h426v-8l-156 -76l-235 -244l335 -618l86 -70v-8h-335z" />
    <glyph glyph-name="l" unicode="l" horiz-adv-x="604" 
d="M2 1507v9h459v-1260q0 -130 21.5 -177.5t90.5 -70.5v-8h-522v8l113 70v1182q0 66 -9 108.5t-31 69.5t-49 41t-73 28z" />
    <glyph glyph-name="m" unicode="m" horiz-adv-x="1712" 
d="M51 0v8l113 70v690q0 94 -10 140.5t-32 68t-71 39.5v8h410v-147q119 167 301 167q98 0 157.5 -40.5t81.5 -153.5q54 88 137.5 141t186.5 53q46 0 80.5 -7.5t66.5 -29.5t52.5 -58.5t32.5 -96t12 -141.5v-633l112 -70v-8h-409v686q0 71 -13.5 110t-34.5 51.5t-57 12.5
q-35 0 -77.5 -29.5t-75.5 -87.5q2 -14 2 -32v-484q0 -110 22 -153t90 -66v-8h-409v686q0 71 -13.5 110t-34.5 51.5t-57 12.5q-37 0 -79 -26.5t-74 -77.5v-529q0 -110 22 -153t90 -66v-8h-522z" />
    <glyph glyph-name="n" unicode="n" horiz-adv-x="1220" 
d="M51 0v8l113 70v690q0 92 -10 138.5t-32 69.5t-71 40v8h410v-147q59 76 147 121.5t189 45.5q65 0 112 -13t87 -46t60.5 -96.5t20.5 -157.5v-653l113 -70v-8h-410v686q0 93 -31.5 133.5t-97.5 40.5q-50 0 -101 -29.5t-89 -82.5v-492q0 -129 19 -176t93 -72v-8h-522z" />
    <glyph glyph-name="o" unicode="o" horiz-adv-x="1159" 
d="M61 512q0 247 145.5 389.5t373.5 142.5q227 0 372.5 -142.5t145.5 -389.5t-145.5 -389.5t-372.5 -142.5q-228 0 -373.5 142.5t-145.5 389.5zM379 512q0 -230 51 -325t150 -95q65 0 107.5 37t67.5 132t25 251t-25 251t-67.5 132t-107.5 37q-99 0 -150 -95t-51 -325z" />
    <glyph glyph-name="p" unicode="p" horiz-adv-x="1208" 
d="M51 1016v8h410v-88q91 108 231 108q197 0 326 -143t129 -389q0 -252 -126.5 -392t-348.5 -140q-123 0 -211 61v-553h-8q-40 59 -119.5 113.5t-169.5 81.5v1085q0 128 -21 176t-92 72zM461 156q76 -64 170 -64q65 0 107 37t66.5 131.5t24.5 251.5q0 220 -47.5 320
t-140.5 100q-50 0 -96.5 -37.5t-83.5 -93.5v-645z" />
    <glyph glyph-name="q" unicode="q" horiz-adv-x="1187" 
d="M61 500q0 249 134 396.5t344 147.5q156 0 258 -102l239 102h8v-1556h-8q-40 59 -119.5 113.5t-168.5 81.5v358q-92 -61 -209 -61q-224 0 -351 135t-127 385zM379 500q0 -117 15 -199t43.5 -126.5t63 -63.5t79.5 -19q92 0 168 64v712q-77 64 -158 64q-108 0 -159.5 -104
t-51.5 -328z" />
    <glyph glyph-name="r" unicode="r" horiz-adv-x="870" 
d="M51 0v8l113 70v690q0 129 -19.5 176t-93.5 72v8h410v-170q131 190 399 190l-20 -382h-9q-31 75 -80 116t-110 41q-108 0 -180 -94v-449q0 -59 8.5 -102t21.5 -69.5t37.5 -46t47 -29t59.5 -21.5v-8h-584z" />
    <glyph glyph-name="s" unicode="s" horiz-adv-x="829" 
d="M72 752q0 134 97 213t257 79q140 0 264 -43l-22 -288h-9q-18 40 -35.5 69.5t-47.5 68t-70 60t-86 21.5q-54 0 -84.5 -29t-30.5 -69q0 -36 25 -67.5t65 -57t88.5 -53t96.5 -62.5t88 -76.5t65 -104t25 -137.5q0 -136 -105.5 -216t-292.5 -80q-158 0 -280 43l22 292h9
q41 -93 110.5 -158t153.5 -65q61 0 98 31t37 84q0 42 -24 77t-63 62t-85.5 53.5t-93 59t-85.5 71t-63 95.5t-24 127z" />
    <glyph glyph-name="t" unicode="t" horiz-adv-x="768" 
d="M31 901v8q140 58 266 172t197 250h8v-307h235v-8l-162 -115h-73v-625q0 -59 8.5 -102t21.5 -69.5t37.5 -46t47 -29t59.5 -21.5v-8h-471v901h-174z" />
    <glyph glyph-name="u" unicode="u" horiz-adv-x="1208" 
d="M51 1016v8h410v-686q0 -93 30.5 -133.5t94.5 -40.5q47 0 96 29t86 83v537q0 97 -22 137.5t-91 65.5v8h410v-946l113 -70v-8h-410v147q-59 -76 -145.5 -121.5t-184.5 -45.5q-63 0 -109.5 13t-85.5 46t-59 96.5t-20 157.5v653z" />
    <glyph glyph-name="v" unicode="v" horiz-adv-x="1044" 
d="M-10 1016v8h385l225 -532h8l150 354q14 35 14 63q0 42 -24.5 70t-53.5 37v8h361v-8l-92 -70l-437 -1007h-8l-436 1007z" />
    <glyph glyph-name="w" unicode="w" horiz-adv-x="1515" 
d="M-10 1016v8h362l230 -557h8l104 248l-55 137l2 8q55 32 104.5 91.5t85.5 133.5h9l256 -618h8l158 379q12 28 12 61q0 78 -86 109v8h338v-8l-94 -74l-412 -1003h-8l-248 606h-8l-250 -606h-8l-414 1003z" />
    <glyph glyph-name="x" unicode="x" horiz-adv-x="1116" 
d="M10 0v8l119 70l293 391l-309 477l-97 70v8h383l203 -315l107 141q39 53 39 88q0 57 -68 78v8h397v-8l-119 -70l-274 -364l328 -506l94 -68v-8h-379l-223 342l-123 -166q-41 -52 -41 -92q0 -57 68 -76v-8h-398z" />
    <glyph glyph-name="y" unicode="y" horiz-adv-x="1044" 
d="M-10 1016v8h385l225 -532h8l150 354q14 35 14 63q0 42 -24.5 70t-53.5 37v8h361v-8l-92 -70l-566 -1306q-167 0 -301 -50l-4 7l357 503l-367 846z" />
    <glyph glyph-name="z" unicode="z" horiz-adv-x="937" 
d="M31 8l504 893h-189q-60 0 -103.5 -15.5t-71.5 -47t-44 -63.5t-31 -79h-8v328h807l2 -8l-502 -893h219q58 0 101.5 15t71.5 46t44.5 63.5t32.5 80.5h8v-328h-839z" />
    <glyph glyph-name="braceleft" unicode="{" horiz-adv-x="710" 
d="M55 606v8q221 44 221 224q0 137 21 247t55.5 183.5t85 128.5t101.5 86.5t114 52.5l6 -2q-57 -50 -86.5 -119.5t-29.5 -183.5v-518l-226 -99v-8l226 -98v-612q0 -114 29.5 -184t86.5 -120l-6 -2q-46 16 -82 32t-77 43t-71 60t-59 82t-47.5 109.5t-29.5 142.5t-11 181v143
q0 99 -55.5 149.5t-165.5 73.5z" />
    <glyph glyph-name="bar" unicode="|" horiz-adv-x="614" 
d="M205 -410v1946h205v-1946h-205z" />
    <glyph glyph-name="braceright" unicode="}" horiz-adv-x="710" 
d="M51 -408q57 50 87 120t30 184v612l225 98v8l-225 99v518q0 114 -29.5 183.5t-87.5 119.5l6 2q63 -21 114 -52.5t101.5 -86.5t85 -128.5t55.5 -183.5t21 -247q0 -180 221 -224v-8q-110 -23 -165.5 -73.5t-55.5 -149.5v-123q0 -137 -21.5 -244t-55 -176t-85 -121
t-101.5 -79.5t-114 -49.5z" />
    <glyph glyph-name="asciitilde" unicode="~" 
d="M162 573l213 287q37 6 67 6q74 0 141 -16t108 -36t97.5 -36t112.5 -16q129 0 201 74l6 -5l-211 -286q-37 -6 -70 -6q-73 0 -139.5 16.5t-107.5 35.5t-97.5 35.5t-113.5 16.5q-131 0 -201 -74z" />
    <glyph glyph-name="uni00A0" unicode="&#xa0;" horiz-adv-x="491" 
 />
    <glyph glyph-name="exclamdown" unicode="&#xa1;" horiz-adv-x="606" 
d="M102 844v8l197 192h8l197 -192v-8q-42 -15 -109 -81.5t-88 -111.5h-8q-21 45 -88 111.5t-109 81.5zM143 -410l62 775l94 237h8l94 -237l60 -775h-318z" />
    <glyph glyph-name="cent" unicode="&#xa2;" horiz-adv-x="1003" 
d="M82 696q0 225 117 371.5t293 175.5l75 322h11l75 -324q111 -18 190.5 -75.5t108.5 -145.5l-221 -154l-6 6q14 35 14 97q0 80 -40.5 134t-123.5 54q-100 0 -153 -111.5t-53 -318.5q0 -78 10.5 -149.5t35.5 -143.5t76 -115t123 -43q75 0 147.5 35t125.5 95l47 -44
q-102 -142 -281 -172l-75 -319h-11l-73 317q-187 25 -299.5 158t-112.5 350z" />
    <glyph glyph-name="sterling" unicode="&#xa3;" horiz-adv-x="1044" 
d="M61 604v8l191 123h31l-41.5 86t-44 92.5t-29.5 85t-14 95.5q0 163 115.5 261.5t305.5 98.5q178 0 334 -78l-28 -362h-9q-47 151 -116.5 229t-177.5 78q-66 0 -107 -41.5t-41 -116.5q0 -54 29.5 -124t72 -155.5t60.5 -148.5h311v-8l-194 -123h-95q0 -133 -64.5 -258
t-182.5 -207l2 -6h309q212 0 297 297h8v-430h-905l-2 8q129 124 195.5 247.5t66.5 270.5q0 30 -10 78h-267z" />
    <glyph glyph-name="currency" unicode="&#xa4;" 
d="M78 137l155 252q-90 133 -90 293t90 293l-155 254l6 6l254 -148q130 103 297 103t297 -103l254 148l6 -6l-154 -254q90 -133 90 -293t-90 -293l154 -252l-6 -6l-254 148q-130 -103 -297 -103t-297 103l-254 -148zM356 682q0 -133 77 -219t202 -86q126 0 203 85.5
t77 219.5t-77 220.5t-203 86.5q-125 0 -202 -86.5t-77 -220.5z" />
    <glyph glyph-name="yen" unicode="&#xa5;" horiz-adv-x="1228" 
d="M-20 1425v9h419l287 -598h8l174 344q41 81 41 139q0 96 -116 106v9h456v-9l-125 -59l-352 -707v-8h332v-8l-180 -115h-152v-163h332v-9l-180 -114h-152q0 -59 15.5 -103t43.5 -69.5t55 -39t60 -22.5v-8h-655v8l174 70v164h-332v8l180 115h152v163h-332v9l180 114h142
l-351 715z" />
    <glyph glyph-name="brokenbar" unicode="&#xa6;" horiz-adv-x="614" 
d="M205 358h205v-768h-205v768zM205 768v768h205v-768h-205z" />
    <glyph glyph-name="section" unicode="&#xa7;" horiz-adv-x="948" 
d="M92 524q0 111 62.5 186t171.5 105q-52 33 -88 61.5t-72.5 69t-55 90.5t-18.5 109q0 145 104.5 227t270.5 82q87 0 170.5 -22t142.5 -56l-26 -297h-9q-35 124 -110.5 203.5t-173.5 79.5q-59 0 -95 -34.5t-36 -86.5q0 -45 29.5 -84.5t77 -71t104.5 -64t114 -70.5
t104.5 -82.5t77 -108t29.5 -139.5q0 -100 -58.5 -172t-158.5 -109q65 -43 109 -85.5t76 -109t32 -145.5q0 -146 -119 -229.5t-301 -83.5q-179 0 -340 84l25 301h8q19 -56 46 -104.5t65 -92.5t91 -70t114 -26q65 0 109 36t44 105q0 49 -28.5 91.5t-74 75t-100.5 65t-110 68.5
t-100.5 77t-74 99.5t-28.5 127.5zM330 627q0 -69 51.5 -122t153.5 -116q73 44 73 146q0 70 -45 123.5t-131 111.5q-49 -13 -75.5 -51t-26.5 -92z" />
    <glyph glyph-name="dieresis" unicode="&#xa8;" horiz-adv-x="819" 
d="M-16 1315v8l196 193h8l197 -193v-8q-42 -15 -109 -81.5t-88 -111.5h-8q-21 45 -87.5 111.5t-108.5 81.5zM434 1315v8l197 193h8l197 -193v-8q-42 -15 -109 -81.5t-88 -111.5h-8q-21 45 -88 111.5t-109 81.5z" />
    <glyph glyph-name="copyright" unicode="&#xa9;" horiz-adv-x="1576" 
d="M51 717q0 200 99 369.5t268.5 268.5t369.5 99q150 0 286.5 -58.5t235.5 -157.5t157.5 -235t58.5 -286t-58.5 -286t-157.5 -235t-235.5 -157.5t-286.5 -58.5q-200 0 -369.5 99t-268.5 268.5t-99 369.5zM178 717q0 -129 48 -245t130 -199t194.5 -132t237.5 -49
q167 0 307.5 83t222 227t81.5 315t-81.5 314.5t-222 226.5t-307.5 83t-307.5 -83t-221.5 -226.5t-81 -314.5zM424 727q0 193 111 311.5t278 118.5q142 0 236 -63l-29 -240h-8q-66 221 -183 221q-87 0 -133.5 -85.5t-46.5 -250.5q0 -360 178 -360q49 0 89.5 35.5t63.5 81
t38 100.5h8l29 -229q-103 -70 -244 -70q-174 0 -280.5 111.5t-106.5 318.5z" />
    <glyph glyph-name="ordfeminine" unicode="&#xaa;" horiz-adv-x="624" 
d="M41 977q0 107 93 155t247 48v41q0 100 -18.5 139t-77.5 39q-50 0 -74.5 -32.5t-24.5 -80.5q0 -30 9 -57l-7 -4l-131 92q33 58 100.5 97.5t153.5 39.5q121 0 178.5 -52t57.5 -185v-340l67 -41v-9h-233v47q-70 -59 -158 -59q-83 0 -132.5 41t-49.5 121zM213 989
q0 -94 84 -94q41 0 84 37v192q-85 -2 -126.5 -32.5t-41.5 -102.5z" />
    <glyph glyph-name="guillemotleft" unicode="&#xab;" horiz-adv-x="933" 
d="M72 508v8q186 142 377 406h40l5 -9l-150 -401l150 -401l-5 -9h-40q-191 264 -377 406zM420 508v8q186 142 377 406h41l4 -9l-150 -401l150 -401l-4 -9h-41q-191 264 -377 406z" />
    <glyph glyph-name="logicalnot" unicode="&#xac;" 
d="M154 764v205h962v-625h-213v420h-749z" />
    <glyph glyph-name="uni00AD" unicode="&#xad;" horiz-adv-x="1071" 
d="M72 512v8l135 217h792v-8l-135 -217h-792z" />
    <glyph glyph-name="registered" unicode="&#xae;" horiz-adv-x="741" 
d="M61 1206q0 128 91.5 219t218.5 91t218 -91t91 -219q0 -94 -50.5 -170t-133.5 -112l-136 270v8q64 4 64 78q0 32 -17 52t-51 20h-20v-285l45 -20v-9h-166v9l35 20v287l-35 20v8h164q53 0 92 -26t39 -76q0 -74 -64 -94l64 -125q16 -33 35 -33q12 0 26.5 14.5t26.5 38.5
q29 60 29 125q0 109 -74.5 185.5t-181.5 76.5t-181.5 -76.5t-74.5 -185.5q0 -88 50.5 -156t127.5 -94q24 -8 49 -8q47 0 47 45l6 2l45 -90q-27 -8 -69 -8q-128 0 -219 91t-91 218z" />
    <glyph glyph-name="macron" unicode="&#xaf;" horiz-adv-x="819" 
d="M76 1229v164h667v-164h-667z" />
    <glyph glyph-name="degree" unicode="&#xb0;" horiz-adv-x="630" 
d="M55 1198q0 111 76 183.5t184 72.5t184 -72.5t76 -183.5q0 -110 -75.5 -184t-184.5 -74t-184.5 74t-75.5 184zM186 1198q0 -61 36.5 -100t92.5 -39t92.5 39t36.5 100q0 60 -36.5 98.5t-92.5 38.5t-92.5 -38.5t-36.5 -98.5z" />
    <glyph glyph-name="plusminus" unicode="&#xb1;" 
d="M154 0v205h962v-205h-962zM154 723v205h374v317h213v-317h375v-205h-375v-317h-213v317h-374z" />
    <glyph glyph-name="uni00B2" unicode="&#xb2;" horiz-adv-x="677" 
d="M0 836q198 219 303 370t105 250q0 67 -31.5 99t-85.5 32q-57 0 -88 -40.5t-31 -90.5q0 -36 10 -63l-6 -4l-135 170q47 44 117 72t145 28q119 0 206 -59t87 -162q0 -49 -16.5 -91.5t-55 -87t-76 -79.5l-106 -96.5t-117.5 -110.5h289l74 125h8v-271h-592z" />
    <glyph glyph-name="uni00B3" unicode="&#xb3;" horiz-adv-x="665" 
d="M31 905l102 125l6 -4q0 -66 37.5 -102.5t99.5 -36.5q60 0 95 40.5t35 114.5q0 64 -37.5 117t-116.5 53l-68 60v8h35q80 0 121 52t41 120q0 64 -30 99.5t-77 35.5q-50 0 -82 -36t-32 -97l-6 -4l-97 106q42 48 106.5 75.5t135.5 27.5q114 0 189 -49t75 -144q0 -76 -49 -125
t-117 -69v-8q86 -15 141.5 -65.5t55.5 -135.5q0 -115 -82.5 -181.5t-226.5 -66.5q-79 0 -145.5 25t-108.5 65z" />
    <glyph glyph-name="acute" unicode="&#xb4;" horiz-adv-x="819" 
d="M168 1149q63 52 125 153.5t76 172.5h405l2 -7l-602 -325z" />
    <glyph glyph-name="uni00B5" unicode="&#xb5;" horiz-adv-x="1208" 
d="M51 1016v8h410v-686q0 -93 30.5 -133.5t94.5 -40.5q44 0 93 25.5t89 66.5v557q0 97 -22 137.5t-91 65.5v8h410v-946l113 -70v-8h-410v127q-60 -62 -139.5 -101.5t-167.5 -45.5v-390h-8q-99 145 -289 195v1161z" />
    <glyph glyph-name="paragraph" unicode="&#xb6;" horiz-adv-x="1038" 
d="M51 1079q0 163 101.5 259t263.5 96h520v-9l-113 -69v-905q0 -170 -31 -306t-85.5 -224.5t-119.5 -143t-141 -80.5l-6 2q29 39 44 64.5t28.5 78t13.5 119.5v766h-110q-163 0 -264 93.5t-101 258.5zM348 1079q0 -231 162 -231h16v465h-26q-84 0 -118 -62t-34 -172z" />
    <glyph glyph-name="periodcentered" unicode="&#xb7;" horiz-adv-x="565" 
d="M82 612v9q42 15 109 81t88 111h8q21 -45 87.5 -111t108.5 -81v-9l-196 -192h-8z" />
    <glyph glyph-name="cedilla" unicode="&#xb8;" horiz-adv-x="819" 
d="M246 -182l92 202h94l-35 -120l168 -72v-10q0 -144 -85.5 -232t-198.5 -98l-2 6q48 9 85 64.5t37 126.5q0 61 -29.5 97t-84.5 36q-24 0 -39 -6z" />
    <glyph glyph-name="uni00B9" unicode="&#xb9;" horiz-adv-x="503" 
d="M31 827v13l129 49v592l-6 6h-123v12q64 16 154.5 63t146.5 97h12v-770l129 -49v-13h-442z" />
    <glyph glyph-name="ordmasculine" unicode="&#xba;" horiz-adv-x="720" 
d="M61 1135q0 147 85.5 233t213.5 86q129 0 214 -85.5t85 -233.5t-85 -234t-214 -86q-128 0 -213.5 86t-85.5 234zM233 1135q0 -265 127 -265t127 265q0 264 -127 264t-127 -264z" />
    <glyph glyph-name="guillemotright" unicode="&#xbb;" horiz-adv-x="933" 
d="M92 111l150 401l-150 401l4 9h41q191 -264 377 -406v-8q-186 -142 -377 -406h-41zM440 111l150 401l-150 401l4 9h41q191 -264 377 -406v-8q-186 -142 -377 -406h-41z" />
    <glyph glyph-name="onequarter" unicode="&#xbc;" horiz-adv-x="1507" 
d="M51 623v12l129 49v592l-6 6h-123v12q64 16 154.5 63t146.5 97h13v-770l129 -49v-12h-443zM205 6l942 1428h166l2 -7l-942 -1427h-166zM801 231l522 600h8v-600h135v-8l-75 -73h-60v-150q-33 0 -89 -9t-87 -20h-8v179h-258l-84 73zM918 238l4 -7h225v256h-8z" />
    <glyph glyph-name="onehalf" unicode="&#xbd;" horiz-adv-x="1632" 
d="M51 623v12l129 49v592l-6 6h-123v12q64 16 154.5 63t146.5 97h13v-770l129 -49v-12h-443zM205 6l942 1428h166l2 -7l-942 -1427h-166zM934 8q196 218 301.5 370t105.5 251q0 131 -116 131q-57 0 -88 -40.5t-31 -90.5q0 -37 10 -64l-6 -4l-135 170q47 44 117 72t145 28
q119 0 206 -59t87 -162q0 -49 -16.5 -91.5t-55 -87t-76 -79.5l-106 -96.5t-117.5 -110.5h289l74 125h8v-270h-592z" />
    <glyph glyph-name="threequarters" unicode="&#xbe;" horiz-adv-x="1548" 
d="M51 700l103 125l6 -4q0 -66 37.5 -102.5t99.5 -36.5q59 0 94 41t35 115q0 64 -37.5 117t-116.5 53l-67 59v8h35q80 0 120.5 52t40.5 120q0 64 -29.5 99.5t-76.5 35.5q-50 0 -82.5 -36t-32.5 -97l-6 -4l-96 107q41 48 105 75t136 27q114 0 189.5 -49t75.5 -143
q0 -76 -49.5 -125.5t-116.5 -69.5v-8q85 -15 140.5 -65.5t55.5 -135.5q0 -115 -82.5 -181.5t-226.5 -66.5q-79 0 -145.5 25t-108.5 65zM246 6l942 1428h166l2 -7l-942 -1427h-166zM842 231l522 600h8v-600h135v-8l-75 -73h-60v-150q-33 0 -89 -9t-87 -20h-8v179h-258l-84 73
zM958 238l5 -7h225v256h-8z" />
    <glyph glyph-name="questiondown" unicode="&#xbf;" horiz-adv-x="1097" 
d="M143 -61q0 163 102.5 286t286.5 201l78 176h8l113 -246q-70 -29 -120 -66.5t-78.5 -75.5t-45 -87t-21.5 -91t-5 -97q0 -124 46 -195.5t134 -71.5q85 0 131.5 67.5t46.5 158.5q0 79 -16 122l6 7l227 -289q-81 -74 -190.5 -121t-235.5 -47q-210 0 -338.5 101t-128.5 268z
M414 844v8l196 192h8l197 -192v-8q-42 -15 -109 -81.5t-88 -111.5h-8q-21 45 -87.5 111.5t-108.5 81.5z" />
    <glyph glyph-name="Agrave" unicode="&#xc0;" horiz-adv-x="1308" 
d="M-31 0v8l103 70l587 1417h9l569 -1417l102 -70v-8h-399l-160 428l-172 -111h-260l-29 -69q-22 -58 -22 -105q0 -101 109 -135v-8h-437zM297 1892l2 6h406q14 -71 75.5 -172t124.5 -153l-6 -6zM408 467h358l-166 451h-8z" />
    <glyph glyph-name="Aacute" unicode="&#xc1;" horiz-adv-x="1308" 
d="M-31 0v8l103 70l587 1417h9l569 -1417l102 -70v-8h-399l-160 428l-172 -111h-260l-29 -69q-22 -58 -22 -105q0 -101 109 -135v-8h-437zM408 467h358l-166 451h-8zM422 1552q63 52 125 153.5t76 172.5h405l2 -6l-602 -326z" />
    <glyph glyph-name="Acircumflex" unicode="&#xc2;" horiz-adv-x="1308" 
d="M-31 0v8l103 70l587 1417h9l569 -1417l102 -70v-8h-399l-160 428l-172 -111h-260l-29 -69q-22 -58 -22 -105q0 -101 109 -135v-8h-437zM283 1593q61 40 162.5 136.5t152.5 168.5h131q51 -71 153 -168t162 -137l-4 -6l-376 119l-377 -119zM408 467h358l-166 451h-8z" />
    <glyph glyph-name="Atilde" unicode="&#xc3;" horiz-adv-x="1308" 
d="M-31 0v8l103 70l587 1417h9l569 -1417l102 -70v-8h-399l-160 428l-172 -111h-260l-29 -69q-22 -58 -22 -105q0 -101 109 -135v-8h-437zM293 1686l166 225q29 4 55 4q73 0 134 -20.5t114.5 -41t107.5 -20.5q101 0 158 59l6 -4l-166 -225q-29 -4 -55 -4q-73 0 -134 20.5
t-114.5 41t-107.5 20.5q-100 0 -158 -60zM408 467h358l-166 451h-8z" />
    <glyph glyph-name="Adieresis" unicode="&#xc4;" horiz-adv-x="1308" 
d="M-31 0v8l103 70l587 1417h9l569 -1417l102 -70v-8h-399l-160 428l-172 -111h-260l-29 -69q-22 -58 -22 -105q0 -101 109 -135v-8h-437zM238 1704v8l196 193h8l197 -193v-8q-42 -15 -109 -81.5t-88 -111.5h-8q-21 45 -87.5 111.5t-108.5 81.5zM408 467h358l-166 451h-8z
M688 1704v8l197 193h8l197 -193v-8q-42 -15 -109 -81.5t-88 -111.5h-8q-21 45 -88 111.5t-109 81.5z" />
    <glyph glyph-name="Aring" unicode="&#xc5;" horiz-adv-x="1308" 
d="M-31 0v8l103 70l534 1292q-94 19 -156.5 94.5t-62.5 175.5q0 116 80.5 196.5t196.5 80.5q115 0 195.5 -80.5t80.5 -196.5q0 -150 -137 -241l-117 69l-6 -6l557 -1384l102 -70v-8h-399l-160 428l-172 -111h-260l-29 -69q-22 -58 -22 -105q0 -101 109 -135v-8h-437z
M408 467h358l-166 451h-8zM524 1640q0 -59 40.5 -102t99.5 -43t99 42t40 103q0 60 -40.5 103t-98.5 43t-99 -43t-41 -103z" />
    <glyph glyph-name="AE" unicode="&#xc6;" horiz-adv-x="1628" 
d="M-51 0v8l104 72l705 1276l-111 69v9h858v-420h-8q-13 54 -36 100t-59.5 87t-93.5 65t-128 24h-115v-477h379v-8l-166 -146h-213v-516h156q70 0 127.5 27t94 72.5t59.5 94t36 103.5h8v-440h-788v426l-170 -109h-223l-39 -69q-45 -77 -45 -135q0 -92 104 -105v-8h-436z
M449 467h309v537h-8z" />
    <glyph glyph-name="Ccedilla" unicode="&#xc7;" horiz-adv-x="1212" 
d="M92 717q0 165 49.5 304t135 233.5t202 147t248.5 52.5q221 0 403 -108l-49 -394h-8q-18 58 -36 104t-47 98t-61 86.5t-77 57.5t-96 23q-162 0 -244 -148.5t-82 -435.5q0 -624 324 -624q65 0 117.5 29.5t91.5 85.5t66 114.5t54 138.5h9l49 -383q-167 -105 -361 -116
l-32 -82l157 -72v-10q0 -145 -81 -232.5t-193 -97.5l-2 6q47 9 85 67.5t38 129.5q0 59 -28.5 93t-76.5 34q-24 0 -39 -6l-2 6l82 162q-129 7 -236.5 56.5t-188.5 139t-126 228t-45 313.5z" />
    <glyph glyph-name="Egrave" unicode="&#xc8;" horiz-adv-x="1112" 
d="M92 0v8l113 70v1278l-113 69v9h897v-420h-8q-13 54 -36 100t-59.5 87t-93.5 65t-128 24h-152v-477h416v-8l-166 -146h-250v-516h193q70 0 127.5 27t94 72.5t59.5 94t36 103.5h8v-440h-938zM221 1892l2 6h406q14 -71 75.5 -172t124.5 -153l-6 -6z" />
    <glyph glyph-name="Eacute" unicode="&#xc9;" horiz-adv-x="1112" 
d="M92 0v8l113 70v1278l-113 69v9h897v-420h-8q-13 54 -36 100t-59.5 87t-93.5 65t-128 24h-152v-477h416v-8l-166 -146h-250v-516h193q70 0 127.5 27t94 72.5t59.5 94t36 103.5h8v-440h-938zM346 1573q63 52 125 153t76 172h405l2 -6l-602 -325z" />
    <glyph glyph-name="Ecircumflex" unicode="&#xca;" horiz-adv-x="1112" 
d="M92 0v8l113 70v1278l-113 69v9h897v-420h-8q-13 54 -36 100t-59.5 87t-93.5 65t-128 24h-152v-477h416v-8l-166 -146h-250v-516h193q70 0 127.5 27t94 72.5t59.5 94t36 103.5h8v-440h-938zM207 1593q61 40 162.5 136.5t152.5 168.5h131q51 -71 153.5 -168t162.5 -137
l-4 -6l-377 119l-377 -119z" />
    <glyph glyph-name="Edieresis" unicode="&#xcb;" horiz-adv-x="1112" 
d="M92 0v8l113 70v1278l-113 69v9h897v-420h-8q-13 54 -36 100t-59.5 87t-93.5 65t-128 24h-152v-477h416v-8l-166 -146h-250v-516h193q70 0 127.5 27t94 72.5t59.5 94t36 103.5h8v-440h-938zM162 1704v8l196 193h9l196 -193v-8q-42 -15 -108.5 -81.5t-87.5 -111.5h-9
q-21 45 -87.5 111.5t-108.5 81.5zM612 1704v8l197 193h8l197 -193v-8q-42 -15 -109 -81.5t-88 -111.5h-8q-21 45 -88 111.5t-109 81.5z" />
    <glyph glyph-name="Igrave" unicode="&#xcc;" horiz-adv-x="716" 
d="M-8 1892l2 6h405q14 -71 76 -172t125 -153l-6 -6zM92 1425v9h533v-9l-113 -69v-1571h-8q-44 65 -125 126.5t-174 88.5v1356z" />
    <glyph glyph-name="Iacute" unicode="&#xcd;" horiz-adv-x="716" 
d="M92 1425v9h533v-9l-113 -69v-1571h-8q-44 65 -125 126.5t-174 88.5v1356zM117 1573q63 52 124.5 153t75.5 172h406l2 -6l-602 -325z" />
    <glyph glyph-name="Icircumflex" unicode="&#xce;" horiz-adv-x="716" 
d="M-23 1593q61 41 163 137t153 168h131q51 -71 153 -168t162 -137l-4 -6l-377 119l-376 -119zM92 1425v9h533v-9l-113 -69v-1571h-8q-44 65 -125 126.5t-174 88.5v1356z" />
    <glyph glyph-name="Idieresis" unicode="&#xcf;" horiz-adv-x="716" 
d="M-68 1704v8l197 193h8l197 -193v-8q-42 -15 -109 -81.5t-88 -111.5h-8q-21 45 -88 111.5t-109 81.5zM92 1425v9h533v-9l-113 -69v-1571h-8q-44 65 -125 126.5t-174 88.5v1356zM383 1704v8l197 193h8l196 -193v-8q-42 -15 -108.5 -81.5t-87.5 -111.5h-8q-21 45 -88 111.5
t-109 81.5z" />
    <glyph glyph-name="Eth" unicode="&#xd0;" horiz-adv-x="1427" 
d="M-31 659v9l166 145h70v379h254v8l-367 225v9h563q208 0 362.5 -90t236 -252t81.5 -375q0 -342 -180.5 -529.5t-499.5 -187.5h-563v8l113 70v581h-236zM512 133h143q174 0 258 144.5t84 439.5q0 306 -83 444.5t-259 138.5h-143v-487h358v-8l-165 -146h-193v-526z" />
    <glyph glyph-name="Ntilde" unicode="&#xd1;" horiz-adv-x="1382" 
d="M51 1425v9h395l549 -807h9v542q0 59 -7 99.5t-18.5 66.5t-36 43.5t-50.5 27t-71 19.5v9h469v-9l-112 -69v-1471h-9l-782 1127h-8v-748q0 -74 8.5 -118.5t33.5 -72t54.5 -40t85.5 -25.5v-8h-469v8l113 70v1200l-51 78zM326 1665l166 225q29 4 55 4q73 0 134 -20.5
t114.5 -41t107.5 -20.5q100 0 158 60l6 -4l-166 -226q-29 -4 -55 -4q-73 0 -134 20.5t-115 41t-108 20.5q-100 0 -157 -59z" />
    <glyph glyph-name="Ograve" unicode="&#xd2;" horiz-adv-x="1470" 
d="M92 717q0 172 50.5 312.5t138 232.5t204.5 142t252 50q58 0 105 -8l-99 -422h-10l-65 289q-238 -64 -238 -596q0 -604 305 -604t305 604q0 367 -112 512l53 178q183 -74 290 -253t107 -437q0 -172 -50 -312.5t-137.5 -232.5t-204 -142t-251.5 -50t-251.5 50t-204 142
t-137.5 232.5t-50 312.5zM369 1892l2 6h405q14 -71 76 -172t125 -153l-6 -6z" />
    <glyph glyph-name="Oacute" unicode="&#xd3;" horiz-adv-x="1470" 
d="M92 717q0 172 50.5 312.5t138 232.5t204.5 142t252 50q58 0 105 -8l-99 -422h-10l-65 289q-238 -64 -238 -596q0 -604 305 -604t305 604q0 367 -112 512l53 178q183 -74 290 -253t107 -437q0 -172 -50 -312.5t-137.5 -232.5t-204 -142t-251.5 -50t-251.5 50t-204 142
t-137.5 232.5t-50 312.5zM494 1573q63 52 124.5 153t75.5 172h406l2 -6l-602 -325z" />
    <glyph glyph-name="Ocircumflex" unicode="&#xd4;" horiz-adv-x="1470" 
d="M92 717q0 172 50.5 312.5t138 232.5t204.5 142t252 50q58 0 105 -8l-99 -422h-10l-65 289q-238 -64 -238 -596q0 -604 305 -604t305 604q0 367 -112 512l53 178q183 -74 290 -253t107 -437q0 -172 -50 -312.5t-137.5 -232.5t-204 -142t-251.5 -50t-251.5 50t-204 142
t-137.5 232.5t-50 312.5zM354 1593q61 41 163 137t153 168h131q51 -71 153 -168t162 -137l-4 -6l-377 119l-377 -119z" />
    <glyph glyph-name="Otilde" unicode="&#xd5;" horiz-adv-x="1470" 
d="M92 717q0 172 50.5 312.5t138 232.5t204.5 142t252 50q58 0 105 -8l-99 -422h-10l-65 289q-238 -64 -238 -596q0 -604 305 -604t305 604q0 367 -112 512l53 178q183 -74 290 -253t107 -437q0 -172 -50 -312.5t-137.5 -232.5t-204 -142t-251.5 -50t-251.5 50t-204 142
t-137.5 232.5t-50 312.5zM365 1665l165 225q29 4 56 4q73 0 134 -20.5t114.5 -41t107.5 -20.5q100 0 158 60l6 -4l-166 -226q-29 -4 -55 -4q-73 0 -134 20.5t-115 41t-108 20.5q-100 0 -157 -59z" />
    <glyph glyph-name="Odieresis" unicode="&#xd6;" horiz-adv-x="1470" 
d="M92 717q0 172 50.5 312.5t138 232.5t204.5 142t252 50q58 0 105 -8l-99 -422h-10l-65 289q-238 -64 -238 -596q0 -604 305 -604t305 604q0 367 -112 512l53 178q183 -74 290 -253t107 -437q0 -172 -50 -312.5t-137.5 -232.5t-204 -142t-251.5 -50t-251.5 50t-204 142
t-137.5 232.5t-50 312.5zM309 1704v8l197 193h8l197 -193v-8q-42 -15 -109 -81.5t-88 -111.5h-8q-21 45 -88 111.5t-109 81.5zM760 1704v8l196 193h9l196 -193v-8q-42 -15 -108.5 -81.5t-87.5 -111.5h-9q-21 45 -87.5 111.5t-108.5 81.5z" />
    <glyph glyph-name="multiply" unicode="&#xd7;" 
d="M158 379l331 326l-329 325l147 148l326 -330l325 332l154 -154l-332 -326l330 -325l-147 -148l-326 330l-326 -332z" />
    <glyph glyph-name="Oslash" unicode="&#xd8;" horiz-adv-x="1470" 
d="M92 -14l162 215q-162 203 -162 516q0 172 50.5 312.5t138 232.5t204.5 142t252 50q58 0 105 -8l-99 -422h-10l-65 289q-238 -64 -238 -596q0 -143 19 -260l524 694q-14 33 -45 78l53 178q73 -33 129 -74l92 121h172l4 -6l-164 -215q164 -201 164 -516q0 -172 -50 -312.5
t-137.5 -232.5t-204 -142t-251.5 -50q-218 0 -377 120l-90 -120h-172zM496 283q76 -170 239 -170q305 0 305 604q0 152 -18 260z" />
    <glyph glyph-name="Ugrave" unicode="&#xd9;" horiz-adv-x="1320" 
d="M72 1425v9h420v-1004q0 -297 243 -297q117 0 182.5 76t65.5 252v719q0 67 -12.5 114t-37 72.5t-47.5 37.5t-57 21v9h441v-9l-113 -69v-885q0 -110 -26 -195.5t-69.5 -140.5t-106 -90.5t-131 -50t-148.5 -14.5q-72 0 -134.5 11t-130.5 44.5t-116.5 86.5t-79.5 145.5
t-31 213.5v875zM369 1892l2 6h405q14 -71 76 -172t125 -153l-6 -6z" />
    <glyph glyph-name="Uacute" unicode="&#xda;" horiz-adv-x="1320" 
d="M72 1425v9h420v-1004q0 -297 243 -297q117 0 182.5 76t65.5 252v719q0 67 -12.5 114t-37 72.5t-47.5 37.5t-57 21v9h441v-9l-113 -69v-885q0 -110 -26 -195.5t-69.5 -140.5t-106 -90.5t-131 -50t-148.5 -14.5q-72 0 -134.5 11t-130.5 44.5t-116.5 86.5t-79.5 145.5
t-31 213.5v875zM494 1573q63 52 124.5 153t75.5 172h406l2 -6l-602 -325z" />
    <glyph glyph-name="Ucircumflex" unicode="&#xdb;" horiz-adv-x="1320" 
d="M72 1425v9h420v-1004q0 -297 243 -297q117 0 182.5 76t65.5 252v719q0 67 -12.5 114t-37 72.5t-47.5 37.5t-57 21v9h441v-9l-113 -69v-885q0 -110 -26 -195.5t-69.5 -140.5t-106 -90.5t-131 -50t-148.5 -14.5q-72 0 -134.5 11t-130.5 44.5t-116.5 86.5t-79.5 145.5
t-31 213.5v875zM354 1593q61 41 163 137t153 168h131q51 -71 153 -168t162 -137l-4 -6l-377 119l-377 -119z" />
    <glyph glyph-name="Udieresis" unicode="&#xdc;" horiz-adv-x="1320" 
d="M72 1425v9h420v-1004q0 -297 243 -297q117 0 182.5 76t65.5 252v719q0 67 -12.5 114t-37 72.5t-47.5 37.5t-57 21v9h441v-9l-113 -69v-885q0 -110 -26 -195.5t-69.5 -140.5t-106 -90.5t-131 -50t-148.5 -14.5q-72 0 -134.5 11t-130.5 44.5t-116.5 86.5t-79.5 145.5
t-31 213.5v875zM309 1704v8l197 193h8l197 -193v-8q-42 -15 -109 -81.5t-88 -111.5h-8q-21 45 -88 111.5t-109 81.5zM760 1704v8l196 193h9l196 -193v-8q-42 -15 -108.5 -81.5t-87.5 -111.5h-9q-21 45 -87.5 111.5t-108.5 81.5z" />
    <glyph glyph-name="Yacute" unicode="&#xdd;" horiz-adv-x="1228" 
d="M-20 1425v9h419l287 -598h8l172 340q43 87 43 143q0 96 -116 106v9h456v-9l-125 -59l-352 -707v-415q0 -48 11 -87t28 -63t41.5 -42.5t46 -27.5t47.5 -16v-8h-655v8l174 70v553l-361 735zM414 1538q63 52 124.5 153.5t75.5 172.5h406l2 -6l-602 -326z" />
    <glyph glyph-name="Thorn" unicode="&#xde;" horiz-adv-x="1208" 
d="M92 0v8l113 70v1278l-113 69v9h574v-9l-154 -69v-189h154q152 0 268 -43.5t185 -134.5t69 -219q0 -101 -40 -182t-108.5 -133t-157.5 -79.5t-190 -27.5h-8l-172 111v-215q0 -48 11 -87t28 -63t41.5 -42.5t46 -27.5t47.5 -16v-8h-594zM512 492h104q244 0 244 268
q0 138 -65 201t-213 63h-70v-532z" />
    <glyph glyph-name="germandbls" unicode="&#xdf;" horiz-adv-x="1286" 
d="M31 901v8q53 31 76.5 46t51.5 40.5t42 54.5t24 72q23 100 61 173.5t79.5 115t94.5 66t97 32t96 7.5q82 0 154.5 -27t122 -85.5t49.5 -137.5q0 -61 -18 -119.5t-39.5 -97.5t-39.5 -96.5t-18 -118.5q0 -40 19 -76t48.5 -64t66 -57l73 -61t66 -69t48.5 -88.5t19 -111.5
q0 -147 -92.5 -237t-261.5 -90q-123 0 -240 43l23 292h8q23 -56 53 -103t76 -83.5t94 -36.5q37 0 64.5 31t27.5 84q0 42 -18 78t-46.5 64t-63.5 55.5t-69.5 59t-63 67t-46.5 87.5t-18 113q0 55 18 114t43.5 110.5l51 101.5t43.5 105t18 104q0 64 -39.5 100.5t-101.5 36.5
q-162 0 -162 -223v-1180h-410v8l113 70v823h-174z" />
    <glyph glyph-name="agrave" unicode="&#xe0;" horiz-adv-x="1046" 
d="M51 248q0 92 43.5 162.5t122 112.5t178.5 63t221 22v68q0 135 -32 195.5t-107 60.5q-63 0 -101 -43t-38 -115q0 -61 14 -96l-6 -6l-266 164q62 95 169 151.5t251 56.5q102 0 175.5 -18t128.5 -60t82 -115.5t27 -180.5v-592l113 -70v-8h-410v113q-115 -133 -278 -133
q-127 0 -207 68.5t-80 199.5zM133 1501l2 6h406q14 -71 75.5 -172t124.5 -153l-6 -6zM338 268q0 -67 32.5 -96t75.5 -29q90 0 170 103v250q-141 -3 -209.5 -55t-68.5 -173z" />
    <glyph glyph-name="aacute" unicode="&#xe1;" horiz-adv-x="1046" 
d="M51 248q0 92 43.5 162.5t122 112.5t178.5 63t221 22v68q0 135 -32 195.5t-107 60.5q-63 0 -101 -43t-38 -115q0 -61 14 -96l-6 -6l-266 164q62 95 169 151.5t251 56.5q102 0 175.5 -18t128.5 -60t82 -115.5t27 -180.5v-592l113 -70v-8h-410v113q-115 -133 -278 -133
q-127 0 -207 68.5t-80 199.5zM258 1182q63 52 125 153t76 172h405l2 -6l-602 -325zM338 268q0 -67 32.5 -96t75.5 -29q90 0 170 103v250q-141 -3 -209.5 -55t-68.5 -173z" />
    <glyph glyph-name="acircumflex" unicode="&#xe2;" horiz-adv-x="1046" 
d="M51 248q0 92 43.5 162.5t122 112.5t178.5 63t221 22v68q0 135 -32 195.5t-107 60.5q-63 0 -101 -43t-38 -115q0 -61 14 -96l-6 -6l-266 164q62 95 169 151.5t251 56.5q102 0 175.5 -18t128.5 -60t82 -115.5t27 -180.5v-592l113 -70v-8h-410v113q-115 -133 -278 -133
q-127 0 -207 68.5t-80 199.5zM119 1202q61 40 162.5 136.5t152.5 168.5h131q51 -71 153.5 -168t162.5 -137l-4 -6l-377 119l-377 -119zM338 268q0 -67 32.5 -96t75.5 -29q90 0 170 103v250q-141 -3 -209.5 -55t-68.5 -173z" />
    <glyph glyph-name="atilde" unicode="&#xe3;" horiz-adv-x="1046" 
d="M51 248q0 92 43.5 162.5t122 112.5t178.5 63t221 22v68q0 135 -32 195.5t-107 60.5q-63 0 -101 -43t-38 -115q0 -61 14 -96l-6 -6l-266 164q62 95 169 151.5t251 56.5q102 0 175.5 -18t128.5 -60t82 -115.5t27 -180.5v-592l113 -70v-8h-410v113q-115 -133 -278 -133
q-127 0 -207 68.5t-80 199.5zM129 1274l166 225q29 4 55 4q73 0 134 -20.5t115 -41t108 -20.5q99 0 157 60l6 -4l-165 -226q-29 -4 -56 -4q-73 0 -134 20.5t-114.5 41t-107.5 20.5q-101 0 -158 -59zM338 268q0 -67 32.5 -96t75.5 -29q90 0 170 103v250q-141 -3 -209.5 -55
t-68.5 -173z" />
    <glyph glyph-name="adieresis" unicode="&#xe4;" horiz-adv-x="1046" 
d="M51 248q0 92 43.5 162.5t122 112.5t178.5 63t221 22v68q0 135 -32 195.5t-107 60.5q-63 0 -101 -43t-38 -115q0 -61 14 -96l-6 -6l-266 164q62 95 169 151.5t251 56.5q102 0 175.5 -18t128.5 -60t82 -115.5t27 -180.5v-592l113 -70v-8h-410v113q-115 -133 -278 -133
q-127 0 -207 68.5t-80 199.5zM74 1315v8l196 193h9l196 -193v-8q-42 -15 -108.5 -81.5t-87.5 -111.5h-9q-21 45 -87.5 111.5t-108.5 81.5zM338 268q0 -67 32.5 -96t75.5 -29q90 0 170 103v250q-141 -3 -209.5 -55t-68.5 -173zM524 1315v8l197 193h8l197 -193v-8
q-42 -15 -109 -81.5t-88 -111.5h-8q-21 45 -88 111.5t-109 81.5z" />
    <glyph glyph-name="aring" unicode="&#xe5;" horiz-adv-x="1046" 
d="M51 248q0 92 43.5 162.5t122 112.5t178.5 63t221 22v68q0 135 -32 195.5t-107 60.5q-63 0 -101 -43t-38 -115q0 -61 14 -96l-6 -6l-266 164q62 95 169 151.5t251 56.5q102 0 175.5 -18t128.5 -60t82 -115.5t27 -180.5v-592l113 -70v-8h-410v113q-115 -133 -278 -133
q-127 0 -207 68.5t-80 199.5zM272 1386q0 95 67 159.5t161 64.5t160.5 -64.5t66.5 -159.5q0 -96 -65.5 -160.5t-161.5 -64.5t-162 64.5t-66 160.5zM338 268q0 -67 32.5 -96t75.5 -29q90 0 170 103v250q-141 -3 -209.5 -55t-68.5 -173zM385 1386q0 -53 32.5 -86.5t82.5 -33.5
t82 33t32 87t-32 87.5t-82 33.5t-82.5 -33.5t-32.5 -87.5z" />
    <glyph glyph-name="ae" unicode="&#xe6;" horiz-adv-x="1597" 
d="M51 248q0 92 43.5 162.5t122 112.5t178.5 63t221 22v68q0 135 -32 195.5t-107 60.5q-63 0 -101 -43t-38 -115q0 -61 14 -96l-6 -6l-266 164q62 95 169 151.5t251 56.5q220 0 311 -104q132 104 313 104q191 0 306.5 -116.5t115.5 -306.5v-99h-487l-125 86q-2 -27 -2 -86
q0 -420 235 -420q165 0 277 115l63 -59q-133 -178 -383 -178q-147 0 -259.5 56t-176.5 161h-8q-142 -217 -342 -217q-127 0 -207 68.5t-80 199.5zM338 268q0 -67 32.5 -96t75.5 -29q55 0 110 41.5t89 106.5q-29 101 -29 205q-141 -3 -209.5 -55t-68.5 -173zM936 635h266
q52 0 75 25.5t23 76.5q0 84 -43.5 139.5t-115.5 55.5q-178 0 -205 -297z" />
    <glyph glyph-name="ccedilla" unicode="&#xe7;" horiz-adv-x="1007" 
d="M61 492q0 127 40 232.5t109.5 174.5t162 107t198.5 38q144 0 253 -66.5t143 -172.5l-283 -174l-6 6q33 68 33 137q0 67 -33 112.5t-98 45.5q-95 0 -148 -106t-53 -304q0 -420 235 -420q152 0 267 115l63 -59q-125 -159 -328 -176l-34 -82l168 -72v-10q0 -144 -86 -232
t-199 -98l-2 6q48 9 85.5 64.5t37.5 126.5q0 61 -30 97t-85 36q-24 0 -39 -6l-2 6l84 164q-206 18 -329.5 151t-123.5 359z" />
    <glyph glyph-name="egrave" unicode="&#xe8;" horiz-adv-x="1044" 
d="M61 492q0 127 40 232.5t109.5 174.5t162 107t198.5 38q191 0 306.5 -116.5t115.5 -306.5v-99h-487l-125 86q-2 -27 -2 -86q0 -420 235 -420q165 0 277 115l63 -59q-134 -178 -383 -178q-232 0 -371 135t-139 377zM205 1503l2 6h405q14 -71 76 -172t125 -153l-6 -6z
M383 635h266q53 0 76 25.5t23 76.5q0 84 -44 139.5t-116 55.5q-178 0 -205 -297z" />
    <glyph glyph-name="eacute" unicode="&#xe9;" horiz-adv-x="1044" 
d="M61 492q0 127 40 232.5t109.5 174.5t162 107t198.5 38q191 0 306.5 -116.5t115.5 -306.5v-99h-487l-125 86q-2 -27 -2 -86q0 -420 235 -420q165 0 277 115l63 -59q-134 -178 -383 -178q-232 0 -371 135t-139 377zM330 1184q63 52 124.5 153t75.5 172h406l2 -6l-602 -325z
M383 635h266q53 0 76 25.5t23 76.5q0 84 -44 139.5t-116 55.5q-178 0 -205 -297z" />
    <glyph glyph-name="ecircumflex" unicode="&#xea;" horiz-adv-x="1044" 
d="M61 492q0 127 40 232.5t109.5 174.5t162 107t198.5 38q191 0 306.5 -116.5t115.5 -306.5v-99h-487l-125 86q-2 -27 -2 -86q0 -420 235 -420q165 0 277 115l63 -59q-134 -178 -383 -178q-232 0 -371 135t-139 377zM190 1204q61 41 163 137t153 168h131q51 -71 153 -168
t162 -137l-4 -6l-377 119l-376 -119zM383 635h266q53 0 76 25.5t23 76.5q0 84 -44 139.5t-116 55.5q-178 0 -205 -297z" />
    <glyph glyph-name="edieresis" unicode="&#xeb;" horiz-adv-x="1044" 
d="M61 492q0 127 40 232.5t109.5 174.5t162 107t198.5 38q191 0 306.5 -116.5t115.5 -306.5v-99h-487l-125 86q-2 -27 -2 -86q0 -420 235 -420q165 0 277 115l63 -59q-134 -178 -383 -178q-232 0 -371 135t-139 377zM141 1315v8l197 193h8l197 -193v-8q-42 -15 -109 -81.5
t-88 -111.5h-8q-21 45 -88 111.5t-109 81.5zM383 635h266q53 0 76 25.5t23 76.5q0 84 -44 139.5t-116 55.5q-178 0 -205 -297zM592 1315v8l196 193h9l196 -193v-8q-42 -15 -108.5 -81.5t-87.5 -111.5h-9q-21 45 -87.5 111.5t-108.5 81.5z" />
    <glyph glyph-name="igrave" unicode="&#xec;" horiz-adv-x="604" 
d="M-66 1503l3 6h405q14 -71 76 -172t125 -153l-6 -6zM41 0v8l113 70v690q0 134 -21 178.5t-92 69.5v8h410v-782q0 -121 21.5 -166t90.5 -68v-8h-522z" />
    <glyph glyph-name="iacute" unicode="&#xed;" horiz-adv-x="604" 
d="M41 0v8l113 70v690q0 134 -21 178.5t-92 69.5v8h410v-782q0 -121 21.5 -166t90.5 -68v-8h-522zM59 1184q63 52 125 153t76 172h406l2 -6l-602 -325z" />
    <glyph glyph-name="icircumflex" unicode="&#xee;" horiz-adv-x="604" 
d="M-80 1204q61 41 163 137t153 168h131q51 -71 153 -168t162 -137l-4 -6l-377 119l-377 -119zM41 0v8l113 70v690q0 134 -21 178.5t-92 69.5v8h410v-782q0 -121 21.5 -166t90.5 -68v-8h-522z" />
    <glyph glyph-name="idieresis" unicode="&#xef;" horiz-adv-x="604" 
d="M-125 1315v8l197 193h8l196 -193v-8q-42 -15 -108.5 -81.5t-87.5 -111.5h-8q-21 45 -88 111.5t-109 81.5zM41 0v8l113 70v690q0 134 -21 178.5t-92 69.5v8h410v-782q0 -121 21.5 -166t90.5 -68v-8h-522zM326 1315v8l196 193h8l197 -193v-8q-42 -15 -109 -81.5t-88 -111.5
h-8q-21 45 -87.5 111.5t-108.5 81.5z" />
    <glyph glyph-name="eth" unicode="&#xf0;" horiz-adv-x="1159" 
d="M61 451q0 108 42 200.5t112 153t158 94t182 33.5l209 -82q-56 234 -170 354l-145 -180h-136l-2 6l197 244q-116 75 -285 98l13 82q194 -18 348 -84l135 166h143l-176 -217q192 -113 302 -303t110 -443q0 -281 -135.5 -437t-382.5 -156q-149 0 -265.5 54.5t-185 162.5
t-68.5 254zM379 451q0 -191 52 -275t149 -84t148.5 84t51.5 275q0 207 -10 368h-119q-131 0 -201.5 -85.5t-70.5 -282.5z" />
    <glyph glyph-name="ntilde" unicode="&#xf1;" horiz-adv-x="1220" 
d="M51 0v8l113 70v690q0 92 -10 138.5t-32 69.5t-71 40v8h410v-147q59 76 147 121.5t189 45.5q65 0 112 -13t87 -46t60.5 -96.5t20.5 -157.5v-653l113 -70v-8h-410v686q0 93 -31.5 133.5t-97.5 40.5q-50 0 -101 -29.5t-89 -82.5v-492q0 -129 19 -176t93 -72v-8h-522z
M225 1276l166 225q29 4 55 4q73 0 134 -20.5t115 -41t108 -20.5q100 0 158 60l6 -4l-166 -226q-29 -4 -56 -4q-73 0 -134 20.5t-114.5 41t-107.5 20.5q-101 0 -158 -59z" />
    <glyph glyph-name="ograve" unicode="&#xf2;" horiz-adv-x="1159" 
d="M61 512q0 247 145.5 389.5t373.5 142.5q227 0 372.5 -142.5t145.5 -389.5t-145.5 -389.5t-372.5 -142.5q-228 0 -373.5 142.5t-145.5 389.5zM213 1503l2 6h406q14 -71 75.5 -172t124.5 -153l-6 -6zM379 512q0 -230 51 -325t150 -95q65 0 107.5 37t67.5 132t25 251
t-25 251t-67.5 132t-107.5 37q-99 0 -150 -95t-51 -325z" />
    <glyph glyph-name="oacute" unicode="&#xf3;" horiz-adv-x="1159" 
d="M61 512q0 247 145.5 389.5t373.5 142.5q227 0 372.5 -142.5t145.5 -389.5t-145.5 -389.5t-372.5 -142.5q-228 0 -373.5 142.5t-145.5 389.5zM338 1184q63 52 125 153t76 172h405l2 -6l-602 -325zM379 512q0 -230 51 -325t150 -95q65 0 107.5 37t67.5 132t25 251t-25 251
t-67.5 132t-107.5 37q-99 0 -150 -95t-51 -325z" />
    <glyph glyph-name="ocircumflex" unicode="&#xf4;" horiz-adv-x="1159" 
d="M61 512q0 247 145.5 389.5t373.5 142.5q227 0 372.5 -142.5t145.5 -389.5t-145.5 -389.5t-372.5 -142.5q-228 0 -373.5 142.5t-145.5 389.5zM199 1204q61 40 162.5 136.5t152.5 168.5h131q51 -71 153.5 -168t162.5 -137l-5 -6l-376 119l-377 -119zM379 512
q0 -230 51 -325t150 -95q65 0 107.5 37t67.5 132t25 251t-25 251t-67.5 132t-107.5 37q-99 0 -150 -95t-51 -325z" />
    <glyph glyph-name="otilde" unicode="&#xf5;" horiz-adv-x="1159" 
d="M61 512q0 247 145.5 389.5t373.5 142.5q227 0 372.5 -142.5t145.5 -389.5t-145.5 -389.5t-372.5 -142.5q-228 0 -373.5 142.5t-145.5 389.5zM209 1276l166 225q29 4 55 4q73 0 134 -20.5t114.5 -41t107.5 -20.5q100 0 158 60l6 -4l-166 -226q-29 -4 -55 -4
q-73 0 -134 20.5t-114.5 41t-107.5 20.5q-101 0 -158 -59zM379 512q0 -230 51 -325t150 -95q65 0 107.5 37t67.5 132t25 251t-25 251t-67.5 132t-107.5 37q-99 0 -150 -95t-51 -325z" />
    <glyph glyph-name="odieresis" unicode="&#xf6;" horiz-adv-x="1159" 
d="M61 512q0 247 145.5 389.5t373.5 142.5q227 0 372.5 -142.5t145.5 -389.5t-145.5 -389.5t-372.5 -142.5q-228 0 -373.5 142.5t-145.5 389.5zM154 1315v8l196 193h8l197 -193v-8q-42 -15 -109 -81.5t-88 -111.5h-8q-21 45 -87.5 111.5t-108.5 81.5zM379 512
q0 -230 51 -325t150 -95q65 0 107.5 37t67.5 132t25 251t-25 251t-67.5 132t-107.5 37q-99 0 -150 -95t-51 -325zM604 1315v8l197 193h8l197 -193v-8q-42 -15 -109 -81.5t-88 -111.5h-8q-21 45 -88 111.5t-109 81.5z" />
    <glyph glyph-name="divide" unicode="&#xf7;" 
d="M154 600v205h962v-205h-962zM434 354v8q42 15 109 81.5t88 111.5h8q21 -45 88 -111.5t109 -81.5v-8l-197 -192h-8zM434 1042v9l197 192h8l197 -192v-9q-42 -15 -109 -81t-88 -111h-8q-21 45 -88 111t-109 81z" />
    <glyph glyph-name="oslash" unicode="&#xf8;" horiz-adv-x="1159" 
d="M61 -14l129 151q-129 142 -129 375q0 247 145.5 389.5t373.5 142.5q175 0 305 -88l76 88h133l4 -6l-131 -153q131 -144 131 -373q0 -247 -145.5 -389.5t-372.5 -142.5q-175 0 -308 88l-73 -88h-133zM379 512q0 -81 6 -145l363 426q-48 139 -168 139q-99 0 -150 -95
t-51 -325zM412 229q45 -137 168 -137q65 0 107.5 37t67.5 132t25 251q0 61 -8 143z" />
    <glyph glyph-name="ugrave" unicode="&#xf9;" horiz-adv-x="1208" 
d="M51 1016v8h410v-686q0 -93 30.5 -133.5t94.5 -40.5q47 0 96 29t86 83v537q0 97 -22 137.5t-91 65.5v8h410v-946l113 -70v-8h-410v147q-59 -76 -145.5 -121.5t-184.5 -45.5q-63 0 -109.5 13t-85.5 46t-59 96.5t-20 157.5v653zM248 1503l2 6h405q14 -71 76 -172t125 -153
l-6 -6z" />
    <glyph glyph-name="uacute" unicode="&#xfa;" horiz-adv-x="1208" 
d="M51 1016v8h410v-686q0 -93 30.5 -133.5t94.5 -40.5q47 0 96 29t86 83v537q0 97 -22 137.5t-91 65.5v8h410v-946l113 -70v-8h-410v147q-59 -76 -145.5 -121.5t-184.5 -45.5q-63 0 -109.5 13t-85.5 46t-59 96.5t-20 157.5v653zM373 1184q63 52 124.5 153t75.5 172h406l2 -6
l-602 -325z" />
    <glyph glyph-name="ucircumflex" unicode="&#xfb;" horiz-adv-x="1208" 
d="M51 1016v8h410v-686q0 -93 30.5 -133.5t94.5 -40.5q47 0 96 29t86 83v537q0 97 -22 137.5t-91 65.5v8h410v-946l113 -70v-8h-410v147q-59 -76 -145.5 -121.5t-184.5 -45.5q-63 0 -109.5 13t-85.5 46t-59 96.5t-20 157.5v653zM233 1204q61 41 163 137t153 168h131
q51 -71 153 -168t162 -137l-4 -6l-377 119l-376 -119z" />
    <glyph glyph-name="udieresis" unicode="&#xfc;" horiz-adv-x="1208" 
d="M51 1016v8h410v-686q0 -93 30.5 -133.5t94.5 -40.5q47 0 96 29t86 83v537q0 97 -22 137.5t-91 65.5v8h410v-946l113 -70v-8h-410v147q-59 -76 -145.5 -121.5t-184.5 -45.5q-63 0 -109.5 13t-85.5 46t-59 96.5t-20 157.5v653zM188 1315v8l197 193h8l197 -193v-8
q-42 -15 -109 -81.5t-88 -111.5h-8q-21 45 -88 111.5t-109 81.5zM639 1315v8l197 193h8l196 -193v-8q-42 -15 -108.5 -81.5t-87.5 -111.5h-8q-21 45 -88 111.5t-109 81.5z" />
    <glyph glyph-name="yacute" unicode="&#xfd;" horiz-adv-x="1044" 
d="M-10 1016v8h385l225 -532h8l150 354q14 35 14 63q0 42 -24.5 70t-53.5 37v8h361v-8l-92 -70l-566 -1306q-167 0 -301 -50l-4 7l357 503l-367 846zM342 1184q63 52 125 153t76 172h405l2 -6l-602 -325z" />
    <glyph glyph-name="thorn" unicode="&#xfe;" horiz-adv-x="1218" 
d="M0 1507v9h461v-580q91 108 231 108q197 0 326 -143t129 -389q0 -252 -126.5 -392t-348.5 -140q-123 0 -211 61v-553h-8q-40 59 -119.5 113.5t-169.5 81.5v1577q0 66 -9 108.5t-32 69.5t-50 41t-73 28zM461 156q76 -64 170 -64q65 0 107 37t66.5 131.5t24.5 251.5
q0 220 -47.5 320t-140.5 100q-50 0 -96.5 -37.5t-83.5 -93.5v-645z" />
    <glyph glyph-name="ydieresis" unicode="&#xff;" horiz-adv-x="1044" 
d="M-10 1016v8h385l225 -532h8l150 354q14 35 14 63q0 42 -24.5 70t-53.5 37v8h361v-8l-92 -70l-566 -1306q-167 0 -301 -50l-4 7l357 503l-367 846zM137 1315v8l197 193h8l197 -193v-8q-42 -15 -109 -81.5t-88 -111.5h-8q-21 45 -88 111.5t-109 81.5zM588 1315v8l196 193h9
l196 -193v-8q-42 -15 -108.5 -81.5t-87.5 -111.5h-9q-21 45 -87.5 111.5t-108.5 81.5z" />
    <glyph glyph-name="OE" unicode="&#x152;" horiz-adv-x="1935" 
d="M92 717q0 172 50.5 312.5t138 232.5t204.5 142t252 50q58 0 105 -8l-99 -422h-10l-65 289q-238 -64 -238 -596q0 -604 305 -604t305 604q0 367 -112 512l63 205h821v-420h-8q-13 54 -36 100t-59.5 87t-93.5 65t-128 24h-150v-477h414v-8l-166 -146h-248v-516h191
q70 0 127.5 27t94 72.5t59.5 94t36 103.5h8v-440h-966q-75 -20 -152 -20q-135 0 -251.5 50t-204 142t-137.5 232.5t-50 312.5z" />
    <glyph glyph-name="oe" unicode="&#x153;" horiz-adv-x="1763" 
d="M61 512q0 247 145.5 389.5t373.5 142.5q106 0 204 -38t164 -107q139 145 342 145q191 0 306.5 -116.5t115.5 -306.5v-99h-487l-125 86q-2 -23 -2 -86q0 -420 235 -420q165 0 277 115l63 -59q-133 -178 -383 -178q-220 0 -352 135q-67 -65 -161 -100t-197 -35
q-228 0 -373.5 142.5t-145.5 389.5zM379 512q0 -230 51 -325t150 -95q47 0 82 20t62.5 67t41.5 131.5t14 205.5q0 154 -25.5 248t-68 131t-106.5 37q-99 0 -150 -95t-51 -325zM1102 635h266q52 0 75 25.5t23 76.5q0 84 -43.5 139.5t-115.5 55.5q-178 0 -205 -297z" />
    <glyph glyph-name="Ydieresis" unicode="&#x178;" horiz-adv-x="1228" 
d="M-20 1425v9h419l287 -598h8l172 340q43 87 43 143q0 96 -116 106v9h456v-9l-125 -59l-352 -707v-415q0 -48 11 -87t28 -63t41.5 -42.5t46 -27.5t47.5 -16v-8h-655v8l174 70v553l-361 735zM229 1704v8l197 193h8l197 -193v-8q-42 -15 -109 -81.5t-88 -111.5h-8
q-21 45 -88 111.5t-109 81.5zM680 1704v8l197 193h8l196 -193v-8q-42 -15 -108.5 -81.5t-87.5 -111.5h-8q-21 45 -88 111.5t-109 81.5z" />
    <glyph glyph-name="circumflex" unicode="&#x2c6;" horiz-adv-x="819" 
d="M29 1169q61 40 162.5 137t152.5 169h131q51 -71 153.5 -168.5t162.5 -137.5l-5 -6l-376 119l-377 -119z" />
    <glyph glyph-name="tilde" unicode="&#x2dc;" horiz-adv-x="819" 
d="M39 1241l166 225q29 4 55 4q58 0 109.5 -12.5t83.5 -28t75.5 -28t87.5 -12.5q101 0 158 59l6 -4l-166 -225q-36 -5 -55 -5q-73 0 -134 20.5t-114.5 41t-107.5 20.5q-101 0 -158 -59z" />
    <glyph glyph-name="uni2000" unicode="&#x2000;" horiz-adv-x="958" 
 />
    <glyph glyph-name="uni2001" unicode="&#x2001;" horiz-adv-x="1917" 
 />
    <glyph glyph-name="uni2002" unicode="&#x2002;" horiz-adv-x="958" 
 />
    <glyph glyph-name="uni2003" unicode="&#x2003;" horiz-adv-x="1917" 
 />
    <glyph glyph-name="uni2004" unicode="&#x2004;" horiz-adv-x="639" 
 />
    <glyph glyph-name="uni2005" unicode="&#x2005;" horiz-adv-x="479" 
 />
    <glyph glyph-name="uni2006" unicode="&#x2006;" horiz-adv-x="319" 
 />
    <glyph glyph-name="uni2007" unicode="&#x2007;" horiz-adv-x="319" 
 />
    <glyph glyph-name="uni2008" unicode="&#x2008;" horiz-adv-x="239" 
 />
    <glyph glyph-name="uni2009" unicode="&#x2009;" horiz-adv-x="383" 
 />
    <glyph glyph-name="uni200A" unicode="&#x200a;" horiz-adv-x="106" 
 />
    <glyph glyph-name="uni2010" unicode="&#x2010;" horiz-adv-x="1071" 
d="M72 512v8l135 217h792v-8l-135 -217h-792z" />
    <glyph glyph-name="uni2011" unicode="&#x2011;" horiz-adv-x="1071" 
d="M72 512v8l135 217h792v-8l-135 -217h-792z" />
    <glyph glyph-name="figuredash" unicode="&#x2012;" horiz-adv-x="1071" 
d="M72 512v8l135 217h792v-8l-135 -217h-792z" />
    <glyph glyph-name="endash" unicode="&#x2013;" horiz-adv-x="1374" 
d="M72 512v8l135 217h1096v-8l-136 -217h-1095z" />
    <glyph glyph-name="emdash" unicode="&#x2014;" horiz-adv-x="1701" 
d="M72 537v8l106 168h1452v-8l-106 -168h-1452z" />
    <glyph glyph-name="quoteleft" unicode="&#x2018;" horiz-adv-x="565" 
d="M82 1108v8l278 510l9 -4q-21 -76 -21 -168q0 -97 34 -185.5t101 -152.5v-8l-196 -193h-8z" />
    <glyph glyph-name="quoteright" unicode="&#x2019;" horiz-adv-x="565" 
d="M82 1425v9l197 192h8l196 -192v-9l-278 -510l-8 5q20 73 20 167q0 97 -34 185.5t-101 152.5z" />
    <glyph glyph-name="quotesinglbase" unicode="&#x201a;" horiz-adv-x="565" 
d="M82 172v8l197 193h8l196 -193v-8l-278 -510l-8 4q20 73 20 168q0 97 -34 185.5t-101 152.5z" />
    <glyph glyph-name="quotedblleft" unicode="&#x201c;" horiz-adv-x="1028" 
d="M82 1108v8l278 510l9 -4q-21 -76 -21 -168q0 -97 34 -185.5t101 -152.5v-8l-196 -193h-8zM545 1108v8l278 510l8 -4q-20 -73 -20 -168q0 -97 34 -185.5t101 -152.5v-8l-196 -193h-9z" />
    <glyph glyph-name="quotedblright" unicode="&#x201d;" horiz-adv-x="1028" 
d="M82 1425v9l197 192h8l196 -192v-9l-278 -510l-8 5q20 73 20 167q0 97 -34 185.5t-101 152.5zM545 1425v9l196 192h9l196 -192v-9l-278 -510l-9 5q21 76 21 167q0 97 -34 185.5t-101 152.5z" />
    <glyph glyph-name="quotedblbase" unicode="&#x201e;" horiz-adv-x="1028" 
d="M82 172v8l197 193h8l196 -193v-8l-278 -510l-8 4q20 73 20 168q0 97 -34 185.5t-101 152.5zM545 172v8l196 193h9l196 -193v-8l-278 -510l-9 4q21 76 21 168q0 97 -34 185.5t-101 152.5z" />
    <glyph glyph-name="bullet" unicode="&#x2022;" horiz-adv-x="749" 
d="M102 629v8l269 342h8l268 -342v-8q-106 -31 -165.5 -100t-102.5 -181h-8q-43 112 -103 181t-166 100z" />
    <glyph glyph-name="ellipsis" unicode="&#x2026;" horiz-adv-x="1781" 
d="M96 172v8q42 15 109 81.5t88 111.5h8q21 -45 88 -111.5t109 -81.5v-8l-197 -192h-8zM690 172v8q42 15 109 81.5t88 111.5h8q21 -45 88 -111.5t109 -81.5v-8l-197 -192h-8zM1284 172v8q42 15 109 81.5t88 111.5h8q21 -45 88 -111.5t109 -81.5v-8l-197 -192h-8z" />
    <glyph glyph-name="uni202F" unicode="&#x202f;" horiz-adv-x="383" 
 />
    <glyph glyph-name="guilsinglleft" unicode="&#x2039;" horiz-adv-x="585" 
d="M72 508v8q186 142 377 406h40l5 -9l-150 -401l150 -401l-5 -9h-40q-191 264 -377 406z" />
    <glyph glyph-name="guilsinglright" unicode="&#x203a;" horiz-adv-x="585" 
d="M92 111l150 401l-150 401l4 9h41q191 -264 377 -406v-8q-186 -142 -377 -406h-41z" />
    <glyph glyph-name="uni205F" unicode="&#x205f;" horiz-adv-x="479" 
 />
    <glyph glyph-name="Euro" unicode="&#x20ac;" horiz-adv-x="1177" 
d="M20 518v8l181 115h14q-2 25 -2 76q0 59 2 88h-195v8l181 115h28q42 251 184.5 388.5t348.5 137.5q96 0 189.5 -31t164.5 -88l-41 -321h-8q-47 165 -122.5 251.5t-172.5 86.5q-116 0 -169.5 -98t-67.5 -326h415v-8l-180 -115h-240v-164h420v-8l-180 -115h-235
q11 -235 58.5 -335.5t168.5 -100.5q114 0 188 95t125 272h8l43 -351q-77 -57 -177.5 -87.5t-194.5 -30.5q-207 0 -347.5 141t-179.5 397h-207z" />
    <glyph glyph-name="trademark" unicode="&#x2122;" horiz-adv-x="1417" 
d="M31 1208v226h538v-226h-8q-11 65 -43 109.5t-90 44.5h-53v-504l84 -35v-8h-318v8l80 35v504h-49q-58 0 -90 -44.5t-43 -109.5h-8zM594 815v8l70 35v535l-70 32v9h199l170 -375h8l172 375h213v-9l-68 -32v-535l68 -35v-8h-221v369h-9l-176 -406h-8l-180 396h-8v-359h-160z
" />
    <glyph glyph-name="uni25FC" unicode="&#x25fc;" horiz-adv-x="1024" 
d="M0 0v1024h1024v-1024h-1024z" />
    <glyph glyph-name="uniFB01" unicode="&#xfb01;" horiz-adv-x="1345" 
d="M31 901v8q53 31 76.5 46t51.5 40.5t42 54.5t24 72q13 56 34.5 104t45.5 83.5t58 64.5t64.5 48.5t73.5 35.5t75.5 25t79.5 16t77.5 10t77.5 7l-23 -320h-8q-35 77 -82.5 116.5t-95.5 39.5q-51 0 -75.5 -40.5t-24.5 -137.5v-150h690v-768q0 -129 19.5 -176t93.5 -72v-8
h-410v901h-393v-625q0 -59 8.5 -102t21.5 -69.5t37.5 -46t47 -29t59.5 -21.5v-8h-584v8l113 70v823h-174zM844 1315v8l196 193h9l196 -193v-8q-42 -15 -108.5 -81.5t-87.5 -111.5h-9q-21 45 -87.5 111.5t-108.5 81.5z" />
    <glyph glyph-name="uniFB02" unicode="&#xfb02;" horiz-adv-x="1345" 
d="M31 901v8q53 31 76.5 46t51.5 40.5t42 54.5t24 72q20 85 57 149.5t91.5 107t116 70.5t143 42t158.5 19.5t176 5.5h235v-1260q0 -131 21.5 -178t91.5 -70v-8h-410v1167q0 111 -44.5 148t-133.5 37q-55 0 -93 -9t-69.5 -33t-47 -69t-15.5 -113v-104h299v-8l-162 -115h-137
v-645q0 -83 20.5 -133t55 -73.5t98.5 -41.5v-8h-584v8l113 70v823h-174z" />
    </font>
</defs>
</svg>
